<svg xmlns="http://www.w3.org/2000/svg" xmlns:xlink="http://www.w3.org/1999/xlink" viewBox="0 0 134.48 150"><defs><style>.cls-1{fill:url(#Gradiente_sem_nome_42);}.cls-2{fill:url(#Gradiente_sem_nome_42-2);}.cls-3,.cls-9{font-size:14.66px;}.cls-11,.cls-3,.cls-4{fill:#2d3a49;}.cls-3,.cls-4{font-family:Montserrat-Medium, Montserrat;font-weight:500;}.cls-10,.cls-3{letter-spacing:0.1em;}.cls-4{font-size:5.88px;letter-spacing:0.32em;}.cls-5{letter-spacing:0.33em;}.cls-6{letter-spacing:0.32em;}.cls-7{letter-spacing:0.3em;}.cls-8{letter-spacing:0.32em;}.cls-9{fill:#fdc830;font-family:Montserrat-Bold, Montserrat;font-weight:700;letter-spacing:0.09em;}.cls-12{fill:#32404f;}</style><linearGradient id="Gradiente_sem_nome_42" x1="-11.61" y1="105.17" x2="156.02" y2="19.64" gradientTransform="translate(65.3 -32.44) rotate(45)" gradientUnits="userSpaceOnUse"><stop offset="0" stop-color="#fdc830"/><stop offset="1" stop-color="#f37335"/></linearGradient><linearGradient id="Gradiente_sem_nome_42-2" x1="-16.27" y1="141.78" x2="22.86" y2="126.38" gradientTransform="matrix(1, 0, 0, 1, 0, 0)" xlink:href="#Gradiente_sem_nome_42"/></defs><g id="Camada_2" data-name="Camada 2"><g id="Camada_1-2" data-name="Camada 1"><rect class="cls-1" x="27.72" y="22.15" width="88.18" height="80.92" transform="translate(-23.24 69.11) rotate(-45)"/><path class="cls-2" d="M8.52,141.9H0v-17H8.52A8.51,8.51,0,0,1,17,133.38h0A8.51,8.51,0,0,1,8.52,141.9Z"/><text class="cls-3" transform="translate(3.96 138.27)">DESIGN</text><text class="cls-4" transform="translate(34.98 148.45)">L<tspan class="cls-5" x="5.36" y="0">OGO </tspan><tspan class="cls-6" x="29.13" y="0">E</tspan><tspan class="cls-7" x="34.97" y="0">X</tspan><tspan class="cls-5" x="40.68" y="0">AM</tspan><tspan class="cls-8" x="54.48" y="0">P</tspan><tspan class="cls-5" x="60.61" y="0">LE</tspan></text><text class="cls-9" transform="translate(71.5 138.25)">L<tspan class="cls-10" x="10.15" y="0">OGO</tspan></text><polygon class="cls-11" points="29.84 85.09 9.57 64.46 30.18 43.81 30.07 47.27 12.92 64.46 29.91 81.82 29.84 85.09"/><polygon class="cls-11" points="69.87 124.76 46.89 101.78 50.19 101.72 69.87 121.41 131.13 60.3 74.18 3.35 57.55 19.83 54.17 19.87 74.18 0 134.48 60.3 69.87 124.76"/><path class="cls-11" d="M49.88,36.45H71A24.3,24.3,0,0,1,87.5,42.93l.67.65A24.36,24.36,0,0,1,89.73,76.3L93,79.6a29,29,0,0,0-1.58-39.31c-.26-.26-.52-.51-.8-.76A28.85,28.85,0,0,0,71,31.8H45.23Z"/><path class="cls-11" d="M86.14,79.83A24.24,24.24,0,0,1,71,85.15H46.59V40.28L42,35.64V89.8H71a28.82,28.82,0,0,0,18.49-6.67Z"/><path class="cls-12" d="M89.44,83.13A28.82,28.82,0,0,1,71,89.8H42V35.64L31,24.73v76H71a39.69,39.69,0,0,0,26.22-9.84Z"/><path class="cls-12" d="M45.23,31.8H71a28.85,28.85,0,0,1,19.7,7.73c.28.25.54.5.8.76A29,29,0,0,1,93,79.6l7.73,7.73a40.67,40.67,0,0,0,4.86-6.76,39.94,39.94,0,0,0-6.46-48l-.8-.78A39.77,39.77,0,0,0,71,20.9H34.33Z"/><polygon class="cls-11" points="41.95 35.64 41.95 89.8 46.59 85.15 46.59 40.28 41.95 35.64"/></g></g></svg>