<svg xmlns="http://www.w3.org/2000/svg" viewBox="0 0 138 103.53"><defs><style>.cls-1{fill:#fff;stroke:#0a0a0a;stroke-miterlimit:10;stroke-width:3px;}.cls-2{fill:#0a0a0a;}</style></defs><g id="Camada_2" data-name="Camada 2"><g id="Camada_1-2" data-name="Camada 1"><rect class="cls-1" x="1.5" y="1.5" width="135" height="100.53" rx="2.81"/><path class="cls-2" d="M95.78,32.42a3.94,3.94,0,0,0-3-1.42h0a4,4,0,0,0-3,1.42L53.44,76,32.75,48.37a4,4,0,0,0-3.14-1.58h0a4,4,0,0,0-3.15,1.57L1.7,81V98.11a4,4,0,0,0,4,4H132.49a4,4,0,0,0,3.95-4V80.88ZM53.28,38.9A11.84,11.84,0,1,0,41.44,27.06,11.85,11.85,0,0,0,53.28,38.9Z"/></g></g></svg>