<svg xmlns="http://www.w3.org/2000/svg" xmlns:xlink="http://www.w3.org/1999/xlink" viewBox="0 0 120 120.27"><defs><style>.cls-1{fill:#32404f;}.cls-2{fill:#2d3a49;}.cls-3{fill:url(#Gradiente_sem_nome_42);}.cls-4{fill:#f37335;}.cls-5{fill:#fff;}</style><linearGradient id="Gradiente_sem_nome_42" x1="7.49" y1="44.47" x2="112.51" y2="44.47" gradientUnits="userSpaceOnUse"><stop offset="0" stop-color="#fdc830"/><stop offset="1" stop-color="#f37335"/></linearGradient></defs><g id="Camada_2" data-name="Camada 2"><g id="Camada_1-2" data-name="Camada 1"><path class="cls-1" d="M110.12.8H9.88A9.07,9.07,0,0,0,.8,9.88V79.06a9.08,9.08,0,0,0,9.08,9.08H110.12a9.08,9.08,0,0,0,9.08-9.08V9.88A9.07,9.07,0,0,0,110.12.8Z"/><path class="cls-2" d="M110.12,0H9.88A9.89,9.89,0,0,0,0,9.88V79.06a9.89,9.89,0,0,0,9.88,9.88H110.12A9.89,9.89,0,0,0,120,79.06V9.88A9.89,9.89,0,0,0,110.12,0Zm8.29,79.06a8.29,8.29,0,0,1-8.29,8.28H9.88a8.29,8.29,0,0,1-8.29-8.28V9.88A8.3,8.3,0,0,1,9.88,1.59H110.12a8.3,8.3,0,0,1,8.29,8.29Z"/><path class="cls-3" d="M106.18,7.43H13.82a6.34,6.34,0,0,0-6.33,6.33V75.17a6.33,6.33,0,0,0,6.33,6.33h92.36a6.33,6.33,0,0,0,6.33-6.33V13.76a6.34,6.34,0,0,0-6.33-6.33Z"/><path class="cls-2" d="M106.18,6.64H45a.79.79,0,0,0-.8.79.8.8,0,0,0,.8.8h61.15a5.54,5.54,0,0,1,5.53,5.53V75.18a5.54,5.54,0,0,1-5.53,5.53H13.82a5.54,5.54,0,0,1-5.53-5.53V13.76a5.54,5.54,0,0,1,5.53-5.53h24a.79.79,0,0,0,.79-.8.79.79,0,0,0-.79-.79h-24A7.12,7.12,0,0,0,6.7,13.76V75.18a7.13,7.13,0,0,0,7.12,7.12h92.36a7.13,7.13,0,0,0,7.12-7.12V13.76A7.12,7.12,0,0,0,106.18,6.64Z"/><path class="cls-1" d="M52.4,88.14H67.6V107H52.4Z"/><path class="cls-2" d="M67.6,87.35H52.4a.79.79,0,0,0-.8.79V107a.8.8,0,0,0,.8.8H67.6a.8.8,0,0,0,.8-.8V88.14A.79.79,0,0,0,67.6,87.35Zm-.8,18.89H53.2V88.94H66.8Z"/><path class="cls-1" d="M70.78,107H49.22a12.43,12.43,0,0,0-12.43,12.43H83.2A12.41,12.41,0,0,0,70.78,107Z"/><path class="cls-2" d="M70.78,106.24H49.22A13.24,13.24,0,0,0,36,119.47a.79.79,0,0,0,.79.8h20a.8.8,0,0,0,0-1.6H37.62a11.64,11.64,0,0,1,11.6-10.83H70.78a11.64,11.64,0,0,1,11.6,10.83H64a.8.8,0,0,0,0,1.6H83.21a.8.8,0,0,0,.79-.8A13.24,13.24,0,0,0,70.78,106.24Z"/><path class="cls-4" d="M106.18,8.23h-8a5.54,5.54,0,0,1,5.54,5.53V75.17a5.55,5.55,0,0,1-5.54,5.54h8a5.54,5.54,0,0,0,5.53-5.54V13.76a5.54,5.54,0,0,0-5.53-5.53Z"/><path class="cls-5" d="M22.12,48.59A5,5,0,0,1,20,48.14a5.65,5.65,0,0,1-1.72-1.23,5.72,5.72,0,0,1-1.15-1.84,6.12,6.12,0,0,1-.42-2.28,5.69,5.69,0,0,1,.42-2.19,5.45,5.45,0,0,1,1.16-1.81,5.54,5.54,0,0,1,1.75-1.23,5.44,5.44,0,0,1,2.18-.44,5.28,5.28,0,0,1,2.74.67,4.41,4.41,0,0,1,1.71,1.8L25.07,40.8a3,3,0,0,0-1.2-1.29,3.32,3.32,0,0,0-1.69-.45,2.83,2.83,0,0,0-1.3.3,3.39,3.39,0,0,0-1,.83,3.74,3.74,0,0,0-.66,1.21A4.36,4.36,0,0,0,19,42.85a4.54,4.54,0,0,0,.24,1.5,3.71,3.71,0,0,0,.7,1.19,3.61,3.61,0,0,0,1.06.81,3.13,3.13,0,0,0,1.34.29A3.34,3.34,0,0,0,24,46.2a5.11,5.11,0,0,0,1.47-1.31v2.17A4.38,4.38,0,0,1,22.12,48.59Zm3.15-4.29H23V42.69h4.09v5.82H25.27Z"/><path class="cls-5" d="M32.62,48.67a4.81,4.81,0,0,1-1.83-.34,4,4,0,0,1-1.38-.94A4.2,4.2,0,0,1,28.54,46a4.58,4.58,0,0,1,0-3.26,4.1,4.1,0,0,1,.87-1.37,4,4,0,0,1,1.38-.94,4.63,4.63,0,0,1,1.83-.34,4.54,4.54,0,0,1,1.82.34,4.07,4.07,0,0,1,2.25,2.31,4.73,4.73,0,0,1,0,3.26,4.35,4.35,0,0,1-.86,1.37,4.07,4.07,0,0,1-1.38.94A4.81,4.81,0,0,1,32.62,48.67ZM30.44,44.4a2.73,2.73,0,0,0,.28,1.27,2.2,2.2,0,0,0,.78.87,2.11,2.11,0,0,0,2.22,0,2.33,2.33,0,0,0,.79-.88,2.9,2.9,0,0,0,0-2.53,2.25,2.25,0,0,0-.79-.88,2,2,0,0,0-1.1-.31,2,2,0,0,0-1.12.32,2.2,2.2,0,0,0-.78.87A2.77,2.77,0,0,0,30.44,44.4Z"/><path class="cls-5" d="M42.27,48.67a4.81,4.81,0,0,1-1.83-.34,4.07,4.07,0,0,1-1.38-.94A4.2,4.2,0,0,1,38.19,46a4.58,4.58,0,0,1,0-3.26,4.07,4.07,0,0,1,2.25-2.31,4.63,4.63,0,0,1,1.83-.34,4.54,4.54,0,0,1,1.82.34,4.07,4.07,0,0,1,1.38.94,4,4,0,0,1,.87,1.37,4.58,4.58,0,0,1,0,3.26,4.17,4.17,0,0,1-.86,1.37,4.07,4.07,0,0,1-1.38.94A4.81,4.81,0,0,1,42.27,48.67ZM40.09,44.4a2.62,2.62,0,0,0,.29,1.27,2.2,2.2,0,0,0,.78.87,2.1,2.1,0,0,0,2.21,0,2.33,2.33,0,0,0,.79-.88,2.9,2.9,0,0,0,0-2.53,2.25,2.25,0,0,0-.79-.88,2,2,0,0,0-1.1-.31,2,2,0,0,0-1.11.32,2.2,2.2,0,0,0-.78.87A2.66,2.66,0,0,0,40.09,44.4Z"/><path class="cls-5" d="M51.33,48.67a3.52,3.52,0,0,1-1.52-.33,3.56,3.56,0,0,1-1.19-.92,4,4,0,0,1-.77-1.36,5.12,5.12,0,0,1,0-3.31,4.27,4.27,0,0,1,.81-1.39,3.6,3.6,0,0,1,2.79-1.25,3.39,3.39,0,0,1,1.71.43,3.82,3.82,0,0,1,1.21,1.16V40.24h1.86v7.89a3.67,3.67,0,0,1-.6,2.12A3.74,3.74,0,0,1,54,51.59a5.81,5.81,0,0,1-2.38.47,5.15,5.15,0,0,1-2.3-.46,4.64,4.64,0,0,1-1.61-1.28l1.17-1.13a3.29,3.29,0,0,0,1.2.93,3.64,3.64,0,0,0,1.54.33,3.39,3.39,0,0,0,1.25-.23,2.07,2.07,0,0,0,.9-.72,2.18,2.18,0,0,0,.35-1.28v-1a2.85,2.85,0,0,1-1.17,1.11A3.48,3.48,0,0,1,51.33,48.67ZM52.05,47a2.14,2.14,0,0,0,.67-.11,2.52,2.52,0,0,0,.59-.3,2.32,2.32,0,0,0,.48-.46,2.49,2.49,0,0,0,.32-.53v-2a2.77,2.77,0,0,0-.54-.87,2.53,2.53,0,0,0-.76-.56,2,2,0,0,0-.89-.2,1.89,1.89,0,0,0-.89.21,2,2,0,0,0-.68.58,2.88,2.88,0,0,0-.44.83,3,3,0,0,0-.15,1,2.77,2.77,0,0,0,.17,1,2.4,2.4,0,0,0,.49.78,2.25,2.25,0,0,0,.73.53A2.11,2.11,0,0,0,52.05,47Z"/><path class="cls-5" d="M58.15,36.88h2.14v9a1.12,1.12,0,0,0,.19.77.66.66,0,0,0,.52.2,2.46,2.46,0,0,0,.53-.06,2.7,2.7,0,0,0,.48-.16l.28,1.63a4.21,4.21,0,0,1-1,.31,5.11,5.11,0,0,1-1,.12,2.13,2.13,0,0,1-1.55-.54,2,2,0,0,1-.55-1.52Z"/><path class="cls-5" d="M67.09,48.67a4.8,4.8,0,0,1-1.82-.34A4.16,4.16,0,0,1,63,46a4.48,4.48,0,0,1,.23-3.77,4.09,4.09,0,0,1,1.52-1.57,4.58,4.58,0,0,1,2.35-.59,4.48,4.48,0,0,1,2.35.59,4.15,4.15,0,0,1,1.49,1.57,4.4,4.4,0,0,1,.51,2.09c0,.12,0,.25,0,.38a2.48,2.48,0,0,1,0,.33H65a2.49,2.49,0,0,0,.38,1.09,2,2,0,0,0,.79.7,2.38,2.38,0,0,0,1,.24,2.44,2.44,0,0,0,1.2-.31,1.61,1.61,0,0,0,.77-.82l1.83.51a3.37,3.37,0,0,1-.86,1.13,4.28,4.28,0,0,1-1.33.78A5.08,5.08,0,0,1,67.09,48.67Zm-2.18-5h4.36a2.39,2.39,0,0,0-.36-1.08,2.05,2.05,0,0,0-.77-.72,2.25,2.25,0,0,0-1.07-.25,2.13,2.13,0,0,0-1,.25,2.21,2.21,0,0,0-.77.72A2.51,2.51,0,0,0,64.91,43.71Z"/><path class="cls-5" d="M79.37,37.2H81.6l4.16,11.31H83.5l-.94-2.82H78.4l-.94,2.82H75.2ZM82,44.14l-1.56-4.67-1.56,4.67Z"/><path class="cls-5" d="M86,44.38a4.84,4.84,0,0,1,.48-2.17,3.94,3.94,0,0,1,1.32-1.53,3.39,3.39,0,0,1,1.93-.57,3.09,3.09,0,0,1,1.67.46,3.33,3.33,0,0,1,1.15,1.15V36.88h2.14v9.24a.72.72,0,0,0,.11.47.51.51,0,0,0,.38.18v1.74a5.25,5.25,0,0,1-.91.11,1.53,1.53,0,0,1-1-.29,1,1,0,0,1-.42-.75l0-.52a3.11,3.11,0,0,1-1.25,1.19,3.49,3.49,0,0,1-1.65.42,3.76,3.76,0,0,1-1.58-.33,3.87,3.87,0,0,1-1.26-.92,4,4,0,0,1-.83-1.36A4.64,4.64,0,0,1,86,44.38Zm6.55,1.09V43.52a2.31,2.31,0,0,0-.51-.81,2.7,2.7,0,0,0-.78-.57,1.94,1.94,0,0,0-.86-.21,2,2,0,0,0-.89.2,2.18,2.18,0,0,0-.69.55,2.29,2.29,0,0,0-.45.79,3.06,3.06,0,0,0-.15,1,2.45,2.45,0,0,0,.17.94,2.2,2.2,0,0,0,1.22,1.29,2.17,2.17,0,0,0,.92.19,1.9,1.9,0,0,0,.61-.1,2.66,2.66,0,0,0,.59-.28,2.06,2.06,0,0,0,.49-.44A1.69,1.69,0,0,0,92.59,45.47Z"/><path class="cls-5" d="M99.9,48.67a6.07,6.07,0,0,1-2-.35,4.72,4.72,0,0,1-1.67-1L97,45.89a5.71,5.71,0,0,0,1.47.9,3.78,3.78,0,0,0,1.39.28,2,2,0,0,0,1-.21.7.7,0,0,0,.37-.65.57.57,0,0,0-.2-.46,1.86,1.86,0,0,0-.6-.29c-.26-.09-.58-.18-1-.28a13.68,13.68,0,0,1-1.54-.59,2.27,2.27,0,0,1-.94-.71,1.92,1.92,0,0,1-.31-1.11,2.37,2.37,0,0,1,.42-1.41,2.88,2.88,0,0,1,1.18-.92,4.45,4.45,0,0,1,1.78-.33,5,5,0,0,1,1.69.28,4.18,4.18,0,0,1,1.45.9l-.86,1.35a5.48,5.48,0,0,0-1.21-.72,3.21,3.21,0,0,0-1.17-.23,2.18,2.18,0,0,0-.63.08,1,1,0,0,0-.47.26.66.66,0,0,0-.19.51.64.64,0,0,0,.17.46,1.49,1.49,0,0,0,.51.29l.84.28a13.63,13.63,0,0,1,1.69.58,2.68,2.68,0,0,1,1.05.73,1.84,1.84,0,0,1,.35,1.18,2.29,2.29,0,0,1-.91,1.92A4,4,0,0,1,99.9,48.67Z"/></g></g></svg>