<svg xmlns="http://www.w3.org/2000/svg" xmlns:xlink="http://www.w3.org/1999/xlink" viewBox="0 0 134.48 120"><defs><style>.cls-1{fill:url(#Gradiente_sem_nome_42);}.cls-2{fill:#2d3a49;}.cls-3{fill:#32404f;}.cls-4{fill:#f16c7a;}.cls-5{fill:#d7e057;}.cls-6{fill:#8ac6dd;}.cls-7{fill:#f37335;}.cls-8{fill:#fdc830;}.cls-9{fill:#fff;}</style><linearGradient id="Gradiente_sem_nome_42" x1="0.89" y1="68.83" x2="133.59" y2="68.83" gradientUnits="userSpaceOnUse"><stop offset="0" stop-color="#fdc830"/><stop offset="1" stop-color="#f37335"/></linearGradient></defs><g id="Camada_2" data-name="Camada 2"><g id="Camada_1-2" data-name="Camada 1"><path class="cls-1" d="M.89,18.55v91.28a9.27,9.27,0,0,0,9.28,9.28H124.31a9.27,9.27,0,0,0,9.28-9.28V18.55Z"/><path class="cls-2" d="M133.59,17.65H.89a.89.89,0,0,0-.89.9V51.18a.9.9,0,0,0,1.79,0V19.44h130.9v90.39a8.38,8.38,0,0,1-8.38,8.38H10.17a8.38,8.38,0,0,1-8.38-8.38V60.09a.9.9,0,0,0-1.79,0v49.74A10.18,10.18,0,0,0,10.17,120H124.31a10.18,10.18,0,0,0,10.17-10.17V18.55A.89.89,0,0,0,133.59,17.65Z"/><path class="cls-3" d="M123.92.89H10.56A9.67,9.67,0,0,0,.89,10.56v8h132.7v-8A9.67,9.67,0,0,0,123.92.89Z"/><path class="cls-2" d="M123.92,0H50.81a.9.9,0,1,0,0,1.79h73.11a8.77,8.77,0,0,1,8.77,8.77v7.09H1.79V10.56a8.77,8.77,0,0,1,8.77-8.77H42A.9.9,0,0,0,42,0H10.56A10.58,10.58,0,0,0,0,10.56v8a.89.89,0,0,0,.89.89h132.7a.89.89,0,0,0,.89-.89v-8A10.58,10.58,0,0,0,123.92,0Z"/><circle class="cls-4" cx="87.47" cy="9.82" r="4.02"/><path class="cls-2" d="M87.47,4.91a4.91,4.91,0,1,0,4.91,4.91A4.91,4.91,0,0,0,87.47,4.91Zm0,8A3.13,3.13,0,1,1,90.6,9.82,3.12,3.12,0,0,1,87.47,12.94Z"/><circle class="cls-5" cx="104.28" cy="9.82" r="4.02"/><path class="cls-2" d="M104.28,4.91a4.91,4.91,0,1,0,4.91,4.91A4.91,4.91,0,0,0,104.28,4.91Zm0,8a3.13,3.13,0,1,1,3.13-3.12A3.12,3.12,0,0,1,104.28,12.94Z"/><circle class="cls-6" cx="121.09" cy="9.82" r="4.02"/><path class="cls-2" d="M121.09,4.91A4.91,4.91,0,1,0,126,9.82,4.91,4.91,0,0,0,121.09,4.91Zm0,8a3.13,3.13,0,1,1,3.13-3.12A3.12,3.12,0,0,1,121.09,12.94Z"/><path class="cls-2" d="M123.92,1.79H115A8.74,8.74,0,0,1,121.73,5a4.91,4.91,0,0,1,2,9v3.72h8.92V10.56A8.77,8.77,0,0,0,123.92,1.79Z"/><path class="cls-7" d="M123.77,19.44v90.39a8.38,8.38,0,0,1-8.38,8.38h8.93a8.38,8.38,0,0,0,8.37-8.38V19.44Z"/><path class="cls-8" d="M113.47,80.68A46.24,46.24,0,0,0,68.33,35H67.24A46.23,46.23,0,0,0,21,80.71c0,.11,0,.22,0,.33s0,.11,0,.17h92.48C113.48,81,113.47,80.86,113.47,80.68Z"/><path class="cls-2" d="M114.37,80.67a47.14,47.14,0,0,0-46-46.54H67.24A47.1,47.1,0,0,0,20.12,80.67c0,.14,0,.27,0,.42v.12a.89.89,0,0,0,.89.89h92.48a.89.89,0,0,0,.89-.89Zm-92.46-.35A45.34,45.34,0,0,1,67.24,35.9h1.07a45.36,45.36,0,0,1,44.27,44.41Z"/><path class="cls-2" d="M98.71,72.16a61.17,61.17,0,0,0-4.6-16.78C88.4,42.47,78.78,34.53,68.33,34.13H67.17a.57.57,0,0,0-.19,0C56.57,34.39,46.9,42.21,41.12,55a61,61,0,0,0-4.74,17,69.77,69.77,0,0,0-.6,9.19.89.89,0,0,0,1.78,0,67.84,67.84,0,0,1,.59-8.95,59.19,59.19,0,0,1,4.59-16.48c5.51-12.22,14.61-19.65,24.33-19.87H68.3c9.71.37,18.75,7.92,24.17,20.19a59.23,59.23,0,0,1,4.47,16.29,68,68,0,0,1,.57,8.82.9.9,0,0,0,1.79,0A69.82,69.82,0,0,0,98.71,72.16Z"/><path class="cls-2" d="M79.71,69.6a125.87,125.87,0,0,0-2.56-18.82c-1.38-6.15-4.47-16.47-9.76-16.66a1.93,1.93,0,0,0-.42,0c-5.22.34-8.28,10.57-9.64,16.65a127.27,127.27,0,0,0-2.57,18.83c-.25,3.82-.38,7.72-.38,11.6a.89.89,0,0,0,.9.89H79.2a.89.89,0,0,0,.89-.89C80.09,77.34,80,73.44,79.71,69.6ZM56.17,80.32c0-3.55.14-7.11.37-10.6a125.2,125.2,0,0,1,2.53-18.55c2.1-9.39,5.11-15.09,8-15.26h.2c3,.08,6,5.79,8.11,15.27a125.07,125.07,0,0,1,2.52,18.55c.23,3.5.36,7.06.37,10.6Z"/><path class="cls-2" d="M114.37,80.66c-.28-10.33-8-19.94-20.71-25.73A60.7,60.7,0,0,0,76.4,50.09a70.22,70.22,0,0,0-18.32,0,61.16,61.16,0,0,0-16.51,4.5C28.41,60.35,20.38,70.1,20.12,80.67c0,.14,0,.27,0,.42v.12a.89.89,0,0,0,.89.89h92.48a.89.89,0,0,0,.89-.89Zm-92.45-.34c.44-9.71,8-18.69,20.37-24.09a59.18,59.18,0,0,1,16-4.37,68.3,68.3,0,0,1,17.84,0,58.91,58.91,0,0,1,16.76,4.69c11.9,5.43,19.22,14.3,19.65,23.77Z"/><path class="cls-2" d="M98,71.41a126.93,126.93,0,0,0-19.14-2.64,181,181,0,0,0-23.29,0,127.93,127.93,0,0,0-18.51,2.5c-6.19,1.36-16.62,4.43-17,9.71v.23a.89.89,0,0,0,.89.89h92.48a.86.86,0,0,0,.63-.26.9.9,0,0,0,.26-.64C114.31,75.92,104.1,72.8,98,71.41ZM22.08,80.32c1.06-2.7,6.67-5.39,15.38-7.31a128.8,128.8,0,0,1,18.25-2.46,180.9,180.9,0,0,1,23.05,0,124.82,124.82,0,0,1,18.87,2.6c8.37,1.91,13.73,4.54,14.77,7.17Z"/><path class="cls-9" d="M118.92,81.26H15.56a6.41,6.41,0,0,0-6.4,6.4V103a6.4,6.4,0,0,0,6.4,6.4H118.92a6.41,6.41,0,0,0,6.4-6.4V87.66A6.4,6.4,0,0,0,118.92,81.26Z"/><path class="cls-2" d="M118.92,80.37H15.56a7.3,7.3,0,0,0-7.29,7.29V103a7.3,7.3,0,0,0,7.29,7.29H118.92a7.3,7.3,0,0,0,7.29-7.29V87.66A7.3,7.3,0,0,0,118.92,80.37Zm5.5,22.62a5.51,5.51,0,0,1-5.5,5.51H15.56a5.51,5.51,0,0,1-5.5-5.51V87.66a5.51,5.51,0,0,1,5.5-5.51H118.92a5.51,5.51,0,0,1,5.5,5.51Z"/><polygon class="cls-2" points="50.65 90.55 48.94 97.25 46.69 90.55 43.02 90.55 40.86 97.24 39.16 90.55 35.23 90.55 39.16 101.17 42.8 101.17 44.88 94.78 47.03 101.17 50.65 101.17 54.56 90.55 50.65 90.55"/><polygon class="cls-2" points="72.02 90.55 70.31 97.25 68.06 90.55 64.39 90.55 62.23 97.24 60.53 90.55 56.59 90.55 60.53 101.17 64.17 101.17 66.25 94.78 68.4 101.17 72.02 101.17 75.93 90.55 72.02 90.55"/><polygon class="cls-2" points="93.39 90.55 91.68 97.25 89.43 90.55 85.75 90.55 83.6 97.24 81.9 90.55 77.97 90.55 81.9 101.17 85.54 101.17 87.62 94.78 89.77 101.17 93.39 101.17 97.3 90.55 93.39 90.55"/></g></g></svg>