<svg xmlns="http://www.w3.org/2000/svg" viewBox="0 0 120 120"><defs><style>.cls-1{fill:#04a558;}.cls-2{fill:#03914a;}.cls-3{fill:#fcc13d;}.cls-4{fill:#dda22c;}.cls-5{fill:#00b564;}.cls-6{fill:#3e436d;}.cls-7{fill:#fff;}</style></defs><g id="Camada_2" data-name="Camada 2"><g id="Camada_1-2" data-name="Camada 1"><g id="Icons"><circle class="cls-1" cx="60" cy="60" r="60"/><path class="cls-2" d="M69.26,119.3A61.13,61.13,0,0,1,60,120,60,60,0,0,1,60,0a61.13,61.13,0,0,1,9.26.7,60,60,0,0,0,0,118.6Z"/><path class="cls-3" d="M60,27.54,4.05,60,60,92.46,116,60Z"/><path class="cls-4" d="M18.52,60a61.14,61.14,0,0,0,.63,8.76L4.05,60l15.1-8.76A61.14,61.14,0,0,0,18.52,60Z"/><circle class="cls-5" cx="106.01" cy="32.81" r="3.82"/><circle class="cls-5" cx="100.8" cy="26.81" r="2.7"/><path class="cls-6" d="M83.2,60v.17a23,23,0,1,1,0-.17Z"/><path class="cls-7" d="M83.2,60.17a22.81,22.81,0,0,1-1.65,8.44c-4.61-8.32-12.2-14.28-22.67-17.75a63.07,63.07,0,0,0-18.61-3.07,23.21,23.21,0,0,1,5.15-5.85A69,69,0,0,1,60.6,45c9.56,3.14,17.17,8.28,22.6,15.16Z"/><circle class="cls-7" cx="44.06" cy="67.27" r="1.64"/><circle class="cls-7" cx="51.8" cy="76.87" r="1.64"/><circle class="cls-7" cx="60" cy="72.58" r="1.64"/><circle class="cls-7" cx="63.28" cy="78.52" r="1.64"/><circle class="cls-7" cx="74.53" cy="70.24" r="1.64"/><circle class="cls-7" cx="70.08" cy="75.55" r="1.64"/><circle class="cls-7" cx="63.28" cy="60" r="1.64"/><circle class="cls-7" cx="44.06" cy="53.91" r="1.64"/><circle class="cls-7" cx="51.8" cy="68.91" r="1.64"/></g></g></g></svg>