<svg xmlns="http://www.w3.org/2000/svg" viewBox="0 0 119.98 120"><defs><style>.cls-1{fill:#db1b1b;}.cls-2{fill:#f7bb38;}.cls-3{fill:#c11a1a;}.cls-4{fill:#e0a327;}.cls-5{fill:#f6d372;}</style></defs><g id="Camada_2" data-name="Camada 2"><g id="Camada_1-2" data-name="Camada 1"><g id="Icons"><path class="cls-1" d="M113.34,87.45a60,60,0,0,1-106.7,0Z"/><path class="cls-1" d="M113.34,32.55H6.64a60,60,0,0,1,106.7,0Z"/><path class="cls-2" d="M120,60a59.72,59.72,0,0,1-6.64,27.45H6.64a60.08,60.08,0,0,1,0-54.9h106.7A59.84,59.84,0,0,1,120,60Z"/><path class="cls-3" d="M68.89,119.33A60,60,0,0,1,6.64,87.45H24.45A60,60,0,0,0,68.89,119.33Z"/><path class="cls-3" d="M68.89.67A60,60,0,0,0,24.45,32.55H6.64A60,60,0,0,1,68.89.67Z"/><path class="cls-4" d="M17.81,60a59.59,59.59,0,0,0,6.64,27.45H6.64a60.08,60.08,0,0,1,0-54.9H24.45A59.59,59.59,0,0,0,17.81,60Z"/><circle class="cls-5" cx="109.53" cy="62.59" r="3.81"/><circle class="cls-5" cx="109.53" cy="54.64" r="2.7"/></g></g></g></svg>