<svg xmlns="http://www.w3.org/2000/svg" viewBox="0 0 211 211"><defs><style>.cls-1{fill:none;stroke:#2d3a49;stroke-miterlimit:10;}.cls-2{fill:#02934d;}.cls-3{fill:#db1b1b;}.cls-4{fill:#f6c752;}.cls-5{fill:#e83838;}.cls-6{fill:#fff;}.cls-7{fill:#3e436d;}.cls-8{fill:#037c3c;}.cls-9{fill:#c41c1c;}</style></defs><g id="Camada_2" data-name="Camada 2"><g id="Camada_1-2" data-name="Camada 1"><rect class="cls-1" x="0.5" y="0.5" width="210" height="210" rx="12"/><g id="Icons"><path class="cls-2" d="M93.55,46.68V164.3a60,60,0,0,1,0-117.62Z"/><path class="cls-3" d="M165.5,105.49a60,60,0,0,1-59,60h-2.06a60.6,60.6,0,0,1-10.92-1.17V46.68a61,61,0,0,1,10.78-1.17h2.34a60,60,0,0,1,58.83,60Z"/><path class="cls-4" d="M93.55,66.22A25.43,25.43,0,1,0,119,91.66,25.43,25.43,0,0,0,93.55,66.22ZM115.39,89.9H97.79l.35-.36,6.4-6.4,5.69-5.68A21.74,21.74,0,0,1,115.39,89.9ZM95.3,69.81a21.85,21.85,0,0,1,12,4.76l.47.4L95.3,87.41Zm-3.51,0v17.6l-.63-.63-7-7L79.36,75l.47-.4A21.85,21.85,0,0,1,91.79,69.81ZM76.87,77.46l5.68,5.68L89,89.55l.35.35H71.7a21.78,21.78,0,0,1,5.17-12.44Zm-5.16,16h17.6l-2.44,2.44L83.52,99.2,80,102.72l-3.12,3.12A21.74,21.74,0,0,1,71.7,93.41ZM91.8,113.49a21.83,21.83,0,0,1-12.44-5.15L82,105.66l3.46-3.45,6.3-6.31Zm3.51,0V95.89l12.44,12.44a21.8,21.8,0,0,1-12.45,5.16Zm14.92-7.64-6.64-6.65-3.35-3.34-2.45-2.45h17.6a21.84,21.84,0,0,1-5.16,12.44Z"/><path class="cls-5" d="M80.19,74.55a2,2,0,0,0-2,2V97.16h.08a15.35,15.35,0,0,0,30.53,0h.09V76.53a2,2,0,0,0-2-2Z"/><path class="cls-6" d="M84.48,79.71a1.93,1.93,0,0,0-1.93,1.92V95.88h.07a11,11,0,0,0,21.86,0h.06V81.62a1.92,1.92,0,0,0-1.92-1.92Z"/><path class="cls-7" d="M91.34,81.92a.47.47,0,0,0-.47.47v3.47h0a2.68,2.68,0,0,0,5.32,0h0V82.39a.47.47,0,0,0-.47-.47Z"/><path class="cls-7" d="M91.34,97.61a.47.47,0,0,0-.47.47v3.47h0a2.68,2.68,0,0,0,5.32,0h0V98.08a.47.47,0,0,0-.47-.47Z"/><path class="cls-7" d="M91.34,89.55a.47.47,0,0,0-.47.47v3.47h0a2.68,2.68,0,0,0,5.32,0h0V90a.47.47,0,0,0-.47-.47Z"/><path class="cls-7" d="M85,89.55a.47.47,0,0,0-.47.47v3.47h0a2.68,2.68,0,0,0,5.32,0h0V90a.47.47,0,0,0-.47-.47Z"/><path class="cls-7" d="M97.79,89.55a.47.47,0,0,0-.47.47v3.47h0a2.68,2.68,0,0,0,5.32,0h0V90a.47.47,0,0,0-.47-.47Z"/><path class="cls-8" d="M93.55,46.68v5.19a60,60,0,0,0,0,107.24v5.19a60,60,0,0,1,0-117.62Z"/><path class="cls-9" d="M108.55,46.68a59.41,59.41,0,0,0-15,5.19V46.68a61,61,0,0,1,10.78-1.17h2.34A60.82,60.82,0,0,1,113,46C111.5,46.14,110,46.39,108.55,46.68Z"/><path class="cls-9" d="M108.55,164.3c1.46.29,3,.54,4.45.72a58.29,58.29,0,0,1-6.47.47h-2.06a60.6,60.6,0,0,1-10.92-1.17v-5.21a59.41,59.41,0,0,0,15,5.19Z"/></g></g></g></svg>