<svg xmlns="http://www.w3.org/2000/svg" viewBox="0 0 120 119.98"><defs><style>.cls-1{fill:#02934d;}.cls-2{fill:#db1b1b;}.cls-3{fill:#f6c752;}.cls-4{fill:#e83838;}.cls-5{fill:#fff;}.cls-6{fill:#3e436d;}.cls-7{fill:#037c3c;}.cls-8{fill:#c41c1c;}</style></defs><g id="Camada_2" data-name="Camada 2"><g id="Camada_1-2" data-name="Camada 1"><g id="Icons"><path class="cls-1" d="M48.05,1.17V118.79a60,60,0,0,1,0-117.62Z"/><path class="cls-2" d="M120,60a60,60,0,0,1-59,60H59a60.6,60.6,0,0,1-10.92-1.17V1.17A61,61,0,0,1,58.83,0h2.34A60,60,0,0,1,120,60Z"/><path class="cls-3" d="M48.05,20.71A25.43,25.43,0,1,0,73.48,46.15,25.43,25.43,0,0,0,48.05,20.71ZM69.89,44.39H52.29l.35-.36,6.4-6.4L64.73,32A21.74,21.74,0,0,1,69.89,44.39ZM49.8,24.3a21.85,21.85,0,0,1,12,4.76l.47.4L49.8,41.9Zm-3.51,0V41.9l-.63-.63-7-7.05-4.77-4.76.47-.4A21.85,21.85,0,0,1,46.29,24.3ZM31.37,32l5.68,5.68L43.45,44l.35.36H26.2A21.81,21.81,0,0,1,31.37,32Zm-5.16,16h17.6l-2.44,2.44L38,53.69,34.5,57.21l-3.12,3.13A21.79,21.79,0,0,1,26.2,47.9ZM46.3,68a21.84,21.84,0,0,1-12.44-5.16l2.67-2.68L40,56.7l6.3-6.3Zm3.51,0V50.38L62.25,62.82A21.88,21.88,0,0,1,49.8,68Zm14.92-7.65L58.09,53.7l-3.35-3.35L52.29,47.9h17.6a21.84,21.84,0,0,1-5.16,12.44Z"/><path class="cls-4" d="M34.69,29a2,2,0,0,0-2,2V51.65h.08a15.35,15.35,0,0,0,30.53,0h.09V31a2,2,0,0,0-2-2Z"/><path class="cls-5" d="M39,34.2a1.93,1.93,0,0,0-1.93,1.92V50.37h.07a11,11,0,0,0,21.86,0H59V36.11a1.92,1.92,0,0,0-1.92-1.92Z"/><path class="cls-6" d="M45.84,36.41a.47.47,0,0,0-.47.47v3.47h0a2.68,2.68,0,0,0,5.32,0h0V36.88a.47.47,0,0,0-.47-.47Z"/><path class="cls-6" d="M45.84,52.1a.47.47,0,0,0-.47.47V56h0a2.68,2.68,0,0,0,5.32,0h0V52.57a.47.47,0,0,0-.47-.47Z"/><path class="cls-6" d="M45.84,44a.47.47,0,0,0-.47.47V48h0a2.68,2.68,0,0,0,5.32,0h0V44.51a.47.47,0,0,0-.47-.47Z"/><path class="cls-6" d="M39.51,44a.47.47,0,0,0-.47.47V48h0a2.68,2.68,0,0,0,5.32,0h0V44.51a.47.47,0,0,0-.47-.47Z"/><path class="cls-6" d="M52.29,44a.47.47,0,0,0-.47.47V48h0a2.68,2.68,0,0,0,5.32,0h0V44.51A.47.47,0,0,0,56.7,44Z"/><path class="cls-7" d="M48.05,1.17V6.36a60,60,0,0,0,0,107.24v5.19a60,60,0,0,1,0-117.62Z"/><path class="cls-8" d="M63.05,1.17a59.41,59.41,0,0,0-15,5.19V1.17A61,61,0,0,1,58.83,0h2.34A60.82,60.82,0,0,1,67.5.45C66,.63,64.51.88,63.05,1.17Z"/><path class="cls-8" d="M63.05,118.79c1.46.29,3,.54,4.45.72A58.29,58.29,0,0,1,61,120H59a60.6,60.6,0,0,1-10.92-1.17V113.6a59.41,59.41,0,0,0,15,5.19Z"/></g></g></g></svg>