<svg xmlns="http://www.w3.org/2000/svg" viewBox="0 0 120.03 120"><defs><style>.cls-1{fill:#3e436d;}.cls-2{fill:#343a5b;}.cls-3{fill:#fff;}.cls-4{fill:#db1b1b;}.cls-5{fill:#e0e0e0;}.cls-6{fill:#c11717;}.cls-7{fill:#e23737;}</style></defs><g id="Camada_2" data-name="Camada 2"><g id="Camada_1-2" data-name="Camada 1"><g id="Icons"><path class="cls-1" d="M120,60a60.26,60.26,0,0,1-.71,9.29A59.66,59.66,0,0,1,109,94.68c-.4.55-.8,1.1-1.21,1.64q-1.76,2.3-3.73,4.43a60,60,0,0,1-31.71,18c-1.59.33-3.21.6-4.85.81a61.3,61.3,0,0,1-15,0c-1.64-.21-3.26-.48-4.85-.81a59.73,59.73,0,0,1-26-12.58c-.75-.63-1.49-1.27-2.2-1.92q-2.13-2-4.07-4.1a60,60,0,0,1-1.68-78.31c.51-.62,1-1.22,1.56-1.82q1.93-2.16,4.05-4.11A59.92,59.92,0,0,1,47.71,1.26c1.59-.33,3.2-.6,4.83-.8a61.38,61.38,0,0,1,15,0c1.64.2,3.25.47,4.85.81A59.61,59.61,0,0,1,94.52,10.9c.76.54,1.51,1.09,2.25,1.67,1.53,1.18,3,2.43,4.4,3.76a61.56,61.56,0,0,1,5,5.33A59.79,59.79,0,0,1,119.3,50.71,61.45,61.45,0,0,1,120,60Z"/><path class="cls-2" d="M67.5,119.31q.41.07.81.12l-.81.11a61.38,61.38,0,0,1-15,0c-1.63-.2-3.25-.47-4.84-.81a59.68,59.68,0,0,1-26-12.58c-.75-.62-1.49-1.26-2.21-1.92q-2.13-2-4.06-4.1a60,60,0,0,1-1.69-78.31c.51-.61,1-1.22,1.57-1.82q1.92-2.14,4.05-4.11A59.92,59.92,0,0,1,47.7,1.26c1.59-.33,3.21-.6,4.84-.8a61.38,61.38,0,0,1,15,0l.81.11q-.41,0-.81.12c-1.09.15-2.17.35-3.24.58A59.7,59.7,0,0,0,52.54,5,51.65,51.65,0,0,0,47.7,7.4,59.65,59.65,0,0,0,41.91,11a61,61,0,0,0-6,4.87c-1,.91-1.94,1.85-2.87,2.83-.4.42-.79.85-1.17,1.28-.53.6-1.06,1.21-1.57,1.82q-1.14,1.38-2.19,2.82a58,58,0,0,0-3.24,4.92c-.42.71-.83,1.44-1.22,2.17a59.76,59.76,0,0,0-6.34,19,61,61,0,0,0,0,18.59A59.63,59.63,0,0,0,25,90.57c.79,1.34,1.64,2.64,2.53,3.91.23.33.47.67.72,1,.58.79,1.18,1.57,1.8,2.33s1.29,1.55,2,2.31c1.29,1.43,2.64,2.79,4.06,4.1.72.65,1.46,1.3,2.21,1.92a59.36,59.36,0,0,0,9.44,6.44c1.58.87,3.19,1.67,4.85,2.39a59,59,0,0,0,11.72,3.75c1.07.23,2.14.43,3.23.59Z"/><path class="cls-3" d="M106.18,21.66,83.62,44.22l-6.49,6.49-4.78,4.77-1.27,1.28L67.5,60.33l-9,9-6,6-.49.49-4.36,4.36-26,26c-.75-.62-1.48-1.26-2.2-1.92q-2.13-2-4.06-4.1a59.37,59.37,0,0,1-4.49-5.64L29.63,75.78,47.68,57.73l1-1,3.89-3.89,2.16-2.16,5.16-5.16,1.33-1.33,6.3-6.3,4.85-4.85L94.5,10.91c.76.53,1.51,1.09,2.25,1.66,1.53,1.18,3,2.44,4.4,3.76a61.79,61.79,0,0,1,5,5.33Z"/><path class="cls-3" d="M109,94.69c-.4.55-.8,1.1-1.21,1.64q-1.77,2.3-3.73,4.43a60.1,60.1,0,0,1-5.86,5.54L72.35,80.45l-4.67-4.67-.18-.18-6.31-6.31L59.87,68l-7.33-7.33-3.88-3.88-1-1-5.09-5.08-6.5-6.49L13.73,21.82c.5-.61,1-1.22,1.56-1.82q1.93-2.14,4.05-4.11a60.91,60.91,0,0,1,6-4.87Z"/><path class="cls-4" d="M46.5,77.2l-27,27q-2.13-2-4.06-4.1L38.34,77.2Z"/><path class="cls-4" d="M101.17,16.32,73.28,44.22l-.94.92-.5.5H63.69l1.42-1.42,2.39-2.39L96.77,12.56c1.53,1.18,3,2.44,4.4,3.76Z"/><path class="cls-4" d="M107.79,96.33q-1.77,2.3-3.73,4.43L80.51,77.2h8.16Z"/><path class="cls-4" d="M49.1,45.64H40.94l-1.43-1.42L15.29,20q1.93-2.14,4.05-4.11L47.67,44.22l0,0Z"/><path class="cls-3" d="M119.32,50.71a59.4,59.4,0,0,0-1.38-6.49H72.35v-43c-1.6-.33-3.21-.6-4.85-.8a61.38,61.38,0,0,0-15,0c-1.63.2-3.25.47-4.84.81V44.22H2.13A57.15,57.15,0,0,0,.75,50.71a60.29,60.29,0,0,0,0,18.58,58.08,58.08,0,0,0,1.38,6.49H47.7v43c1.59.33,3.21.6,4.84.81a61.38,61.38,0,0,0,15,0c1.64-.2,3.25-.47,4.85-.81V75.78h45.58a60.36,60.36,0,0,0,1.38-25.07Z"/><path class="cls-5" d="M28.21,95.49c.58.79,1.18,1.57,1.8,2.33l-8.33,8.33c-.75-.62-1.49-1.26-2.2-1.92q-2.13-2-4.07-4.1a59.37,59.37,0,0,1-4.49-5.64L21.53,83.88A60.39,60.39,0,0,0,25,90.58q1.2,2,2.53,3.91l.72,1Z"/><path class="cls-5" d="M33,18.72c-.4.42-.79.85-1.17,1.28-.53.6-1.06,1.21-1.57,1.82q-1.14,1.38-2.19,2.82a58,58,0,0,0-3.24,4.92c-.42.71-.83,1.44-1.22,2.17l-9.92-9.91c.5-.61,1-1.22,1.56-1.82q1.93-2.14,4.05-4.11a60.91,60.91,0,0,1,6-4.87Z"/><path class="cls-5" d="M17.3,50.71a60.92,60.92,0,0,0,0,18.58,58.13,58.13,0,0,0,1.39,6.49H2.13A58.08,58.08,0,0,1,.75,69.29a60.29,60.29,0,0,1,0-18.58,57.15,57.15,0,0,1,1.38-6.49H18.69a57.18,57.18,0,0,0-1.39,6.49Z"/><path class="cls-5" d="M52.54,5c-1.65.72-3.27,1.51-4.84,2.39V1.26c1.59-.33,3.21-.6,4.84-.8a61.38,61.38,0,0,1,15,0l.81.11q-.41,0-.81.12c-1.09.15-2.17.35-3.24.58A59.67,59.67,0,0,0,52.54,5Z"/><path class="cls-4" d="M120,60a60.17,60.17,0,0,0-.71-9.29H67.52V.46a61.3,61.3,0,0,0-14.95,0V50.71H.73a60.92,60.92,0,0,0,0,18.58H52.54v50.24a60.39,60.39,0,0,0,15,0V69.29h51.82A60.26,60.26,0,0,0,120,60Z"/><path class="cls-6" d="M28.21,95.49l-8.74,8.74q-2.13-2-4.06-4.1L25,90.58c.79,1.34,1.64,2.64,2.53,3.91l.72,1Z"/><path class="cls-6" d="M28.1,24.65a58,58,0,0,0-3.24,4.92L15.29,20q1.93-2.14,4.05-4.11Z"/><path class="cls-6" d="M17.3,50.71a60.92,60.92,0,0,0,0,18.58H.73a60.92,60.92,0,0,1,0-18.58Z"/><path class="cls-6" d="M67.5.46V.7c-1.09.15-2.17.35-3.24.58A59.7,59.7,0,0,0,52.54,5V.46A61.38,61.38,0,0,1,67.5.46Z"/><circle class="cls-7" cx="111.2" cy="59.98" r="3.82"/><circle class="cls-7" cx="103.25" cy="59.98" r="2.7"/></g></g></g></svg>