<svg xmlns="http://www.w3.org/2000/svg" xmlns:xlink="http://www.w3.org/1999/xlink" viewBox="0 0 120 132.18"><defs><style>.cls-1{fill:#32404f;}.cls-2{fill:#2d3a49;}.cls-3{fill:url(#Gradiente_sem_nome_42);}.cls-4{fill:#fff;}.cls-5{fill:#f37335;}</style><linearGradient id="Gradiente_sem_nome_42" x1="12.18" y1="66.09" x2="107.82" y2="66.09" gradientUnits="userSpaceOnUse"><stop offset="0" stop-color="#fdc830"/><stop offset="1" stop-color="#f37335"/></linearGradient></defs><g id="Camada_2" data-name="Camada 2"><g id="Camada_1-2" data-name="Camada 1"><path class="cls-1" d="M109.91,10.76,62.28,1.12a11.3,11.3,0,0,0-4.56,0L10.09,10.76A11.47,11.47,0,0,0,1,23.23L2.79,40.35l.9,8.37,1.78,16.7a80.9,80.9,0,0,0,42.74,63,25.34,25.34,0,0,0,23.58,0,80.92,80.92,0,0,0,42.74-63L119,23.23a11.47,11.47,0,0,0-9.13-12.47Z"/><path class="cls-2" d="M110.08,9.89,62.45.25a12.25,12.25,0,0,0-4.9,0L9.92,9.89A12.31,12.31,0,0,0,.07,23.33L1.9,40.45a.9.9,0,0,0,1,.78.88.88,0,0,0,.79-1L1.84,23.14a10.54,10.54,0,0,1,8.43-11.51L57.9,2a10.61,10.61,0,0,1,4.2,0l47.63,9.64a10.55,10.55,0,0,1,8.43,11.51l-4.52,42.19a79.87,79.87,0,0,1-42.26,62.26,24.43,24.43,0,0,1-22.76,0A79.87,79.87,0,0,1,6.36,65.33L4.57,48.63a.89.89,0,1,0-1.77.19L4.59,65.51A81.62,81.62,0,0,0,47.8,129.16a26.15,26.15,0,0,0,24.4,0,81.62,81.62,0,0,0,43.21-63.65l4.52-42.19a12.31,12.31,0,0,0-9.85-13.43Z"/><path class="cls-3" d="M100.38,21.32,83.74,18,76.1,16.41,61.84,13.53a9.12,9.12,0,0,0-3.68,0L19.62,21.32a9.29,9.29,0,0,0-7.39,10.09l3.66,34.14a65.42,65.42,0,0,0,34.57,50.93,20.44,20.44,0,0,0,19.08,0,65.42,65.42,0,0,0,34.57-50.93l3.66-34.14a9.29,9.29,0,0,0-7.39-10.09Z"/><path class="cls-2" d="M100.55,20.45,83.92,17.09a.89.89,0,1,0-.36,1.74L100.2,22.2a8.35,8.35,0,0,1,6.68,9.12l-3.65,34.13A64.43,64.43,0,0,1,69.12,115.7a19.57,19.57,0,0,1-18.25,0,64.44,64.44,0,0,1-34.1-50.25L13.11,31.32A8.35,8.35,0,0,1,19.8,22.2l38.53-7.8a8.12,8.12,0,0,1,3.33,0l14.26,2.88a.89.89,0,1,0,.35-1.74L62,12.65a10.18,10.18,0,0,0-4,0l-38.53,7.8a10.13,10.13,0,0,0-8.1,11.06L15,65.64a66.25,66.25,0,0,0,35.05,51.63,21.35,21.35,0,0,0,19.9,0A66.21,66.21,0,0,0,105,65.64l3.65-34.13a10.13,10.13,0,0,0-8.1-11.06Z"/><path class="cls-1" d="M60,25.79a16.62,16.62,0,0,0-16.6,16.6V54.62a4.83,4.83,0,0,1,1-.11H51V42.39a9,9,0,1,1,18,0V54.51h6.56a4.83,4.83,0,0,1,1,.11V42.39A16.62,16.62,0,0,0,60,25.79Z"/><path class="cls-2" d="M60,24.9A17.51,17.51,0,0,0,42.51,42.39V54.62a.87.87,0,0,0,.33.69.89.89,0,0,0,.75.18,4,4,0,0,1,.83-.09H51a.89.89,0,0,0,.89-.89V42.39a8.13,8.13,0,1,1,16.26,0V54.51a.89.89,0,0,0,.89.89h6.56a4,4,0,0,1,.83.09l.19,0a.89.89,0,0,0,.56-.2.87.87,0,0,0,.33-.69V42.39A17.5,17.5,0,0,0,60,24.9ZM75.71,53.62h-5.8V42.39a9.91,9.91,0,0,0-19.82,0V53.62h-5.8V42.39a15.71,15.71,0,1,1,31.42,0Z"/><path class="cls-4" d="M75.58,54.51H44.42a4.6,4.6,0,0,0-4.61,4.61V90.28a4.6,4.6,0,0,0,4.61,4.61H75.58a4.6,4.6,0,0,0,4.61-4.61V59.12A4.6,4.6,0,0,0,75.58,54.51ZM62.64,74.66v8.1a2.64,2.64,0,1,1-5.28,0v-8.1a6.16,6.16,0,1,1,5.28,0Z"/><path class="cls-5" d="M100.2,22.19,94.34,21a9,9,0,0,1,3,7.73L93.41,65.4a69.21,69.21,0,0,1-34,52.54,19.63,19.63,0,0,0,9.76-2.24,64.43,64.43,0,0,0,34.11-50.25l3.66-34.13a8.38,8.38,0,0,0-6.69-9.13Z"/><path class="cls-2" d="M75.58,53.62H44.42a5.51,5.51,0,0,0-5.5,5.5V90.28a5.51,5.51,0,0,0,5.5,5.5H75.58a5.51,5.51,0,0,0,5.5-5.5V59.12A5.51,5.51,0,0,0,75.58,53.62ZM79.3,90.28A3.73,3.73,0,0,1,75.58,94H44.42a3.73,3.73,0,0,1-3.72-3.72V59.12a3.73,3.73,0,0,1,3.72-3.72H75.58a3.73,3.73,0,0,1,3.72,3.72V90.28Z"/></g></g></svg>