<svg xmlns="http://www.w3.org/2000/svg" xmlns:xlink="http://www.w3.org/1999/xlink" viewBox="0 0 120.02 120"><defs><style>.cls-1{fill:#32404f;}.cls-2{fill:#2d3a49;}.cls-3{fill:#fdc830;}.cls-4{fill:url(#Gradiente_sem_nome_42);}.cls-5{fill:#f37335;}.cls-6{fill:#fff;}</style><linearGradient id="Gradiente_sem_nome_42" x1="11.36" y1="42.13" x2="72.94" y2="42.13" gradientUnits="userSpaceOnUse"><stop offset="0" stop-color="#fdc830"/><stop offset="1" stop-color="#f37335"/></linearGradient></defs><g id="Camada_2" data-name="Camada 2"><g id="Camada_1-2" data-name="Camada 1"><path class="cls-1" d="M117.12,107,76,65.87A41.46,41.46,0,0,1,65.89,76L85.45,95.55l5,5L107,117.1A7.16,7.16,0,0,0,117.12,107Z"/><path class="cls-2" d="M117.69,106.41,76.58,65.31a.79.79,0,0,0-1.22.1,41.41,41.41,0,0,1-4.53,5.4,40.76,40.76,0,0,1-5.4,4.53.79.79,0,0,0-.1,1.22L84.88,96.12A.8.8,0,0,0,86,95L67.13,76.09A42.17,42.17,0,0,0,72,71.94a41.43,41.43,0,0,0,4.15-4.84l40.45,40.45a6.36,6.36,0,0,1-9,9L91,99.93a.8.8,0,0,0-1.13,0,.81.81,0,0,0,0,1.14l16.6,16.6a8,8,0,0,0,11.26-11.26Z"/><path class="cls-3" d="M83.49,61.51l-3.25-3.26a41.48,41.48,0,0,1-22,22l3.26,3.25a5.93,5.93,0,0,0,8.38,0L83.49,69.89A5.93,5.93,0,0,0,83.49,61.51Z"/><path class="cls-2" d="M84.06,60.94,80.8,57.69a.79.79,0,0,0-.72-.22.79.79,0,0,0-.58.47A40.54,40.54,0,0,1,58,79.48a.79.79,0,0,0-.47.58.79.79,0,0,0,.22.72L61,84a6.74,6.74,0,0,0,9.52,0L84.06,70.46a6.75,6.75,0,0,0,0-9.52Zm-1.14,8.38L69.34,82.9a5.13,5.13,0,0,1-7.25,0l-2.42-2.42A42.23,42.23,0,0,0,80.5,59.65l2.42,2.42a5.13,5.13,0,0,1,0,7.25Z"/><circle class="cls-1" cx="42.15" cy="42.13" r="41.35"/><path class="cls-2" d="M72,12.33A42.16,42.16,0,1,0,84.3,42.13,42.19,42.19,0,0,0,72,12.33ZM70.82,70.8A40.53,40.53,0,1,1,82.7,42.13,40.59,40.59,0,0,1,70.82,70.8Z"/><path class="cls-4" d="M63.93,20.36A30.79,30.79,0,0,0,23.07,18l-5,5a30.79,30.79,0,1,0,45.84-2.57Z"/><path class="cls-2" d="M64.49,19.79a31.57,31.57,0,0,0-41.92-2.45.81.81,0,0,0-.13,1.13.82.82,0,0,0,1.13.13,30,30,0,1,1-4.86,4.83.8.8,0,0,0-1.25-1,31.6,31.6,0,1,0,47-2.63Z"/><path class="cls-5" d="M63.36,20.92a29.83,29.83,0,0,0-21.21-8.78,31.13,31.13,0,0,0-4,.26,30,30,0,0,1,0,59.44A30,30,0,0,0,63.36,20.92Z"/><path class="cls-6" d="M34.52,39.43a2.63,2.63,0,0,0-.41-.31,4.8,4.8,0,0,0-.72-.37,7.08,7.08,0,0,0-.92-.31,3.85,3.85,0,0,0-1-.14,2.33,2.33,0,0,0-1.36.34,1.1,1.1,0,0,0-.45.94.92.92,0,0,0,.29.73,2.37,2.37,0,0,0,.86.47c.39.12.87.26,1.44.41a10.09,10.09,0,0,1,1.95.66,3.19,3.19,0,0,1,1.27,1,2.89,2.89,0,0,1,.44,1.67,3.38,3.38,0,0,1-.34,1.55,2.77,2.77,0,0,1-.93,1,4.21,4.21,0,0,1-1.35.58,6.82,6.82,0,0,1-1.6.18,8.41,8.41,0,0,1-3.33-.68,7.38,7.38,0,0,1-1.44-.79l1-1.91a3.34,3.34,0,0,0,.52.38,7.29,7.29,0,0,0,2.05.85,4.89,4.89,0,0,0,1.26.16,2.55,2.55,0,0,0,1.37-.3A1,1,0,0,0,33.17,44a3.34,3.34,0,0,0-1-.5c-.44-.15-1-.3-1.56-.47a10.22,10.22,0,0,1-1.79-.68,2.43,2.43,0,0,1-1.43-2.39,3.39,3.39,0,0,1,.55-2,3.43,3.43,0,0,1,1.5-1.2,5.28,5.28,0,0,1,2.1-.41,6.21,6.21,0,0,1,1.52.18,7,7,0,0,1,1.33.47,8.55,8.55,0,0,1,1.13.62Z"/><path class="cls-6" d="M45.46,45.88v1.94h-7.9V36.44h7.76v1.94H39.77v2.74h4.79v1.8H39.77v3Z"/><path class="cls-6" d="M51.84,47.9a5.28,5.28,0,0,1-2.27-.48,5.13,5.13,0,0,1-1.74-1.31,5.87,5.87,0,0,1-1.13-1.85,5.8,5.8,0,0,1-.41-2.13A5.71,5.71,0,0,1,46.72,40a6,6,0,0,1,1.17-1.84,5.46,5.46,0,0,1,1.76-1.28,5.17,5.17,0,0,1,2.24-.48,5.09,5.09,0,0,1,2.25.5,5.45,5.45,0,0,1,1.74,1.33A6.54,6.54,0,0,1,57,40.05a5.76,5.76,0,0,1,0,4.27,6,6,0,0,1-1.16,1.84,5.46,5.46,0,0,1-1.76,1.28A5.28,5.28,0,0,1,51.84,47.9Zm-3.3-5.77a4.59,4.59,0,0,0,.22,1.43,3.86,3.86,0,0,0,.65,1.22,3,3,0,0,0,1,.85,3.09,3.09,0,0,0,3.87-.89A4.17,4.17,0,0,0,55,43.5a4.6,4.6,0,0,0,.21-1.37,4.43,4.43,0,0,0-.23-1.41,4,4,0,0,0-.66-1.22,3.07,3.07,0,0,0-1-.85,3,3,0,0,0-1.39-.31,3.11,3.11,0,0,0-1.43.32,3,3,0,0,0-1,.88,4.06,4.06,0,0,0-.64,1.22A4.51,4.51,0,0,0,48.54,42.13Z"/></g></g></svg>