<svg xmlns="http://www.w3.org/2000/svg" xmlns:xlink="http://www.w3.org/1999/xlink" viewBox="0 0 120.24 120"><defs><style>.cls-1{fill:#2d3a49;}.cls-2{fill:#32404f;}.cls-3{fill:url(#Gradiente_sem_nome_42);}.cls-4{fill:#fdc830;}.cls-5{fill:#fff;}.cls-6{fill:#f37335;}</style><linearGradient id="Gradiente_sem_nome_42" x1="6.29" y1="94.53" x2="113.95" y2="94.53" gradientUnits="userSpaceOnUse"><stop offset="0" stop-color="#fdc830"/><stop offset="1" stop-color="#f37335"/></linearGradient></defs><g id="Camada_2" data-name="Camada 2"><g id="Camada_1-2" data-name="Camada 1"><path class="cls-1" d="M104.74,76.48,60.81.4a.79.79,0,0,0-.69-.4.78.78,0,0,0-.69.4L15.5,76.48a.8.8,0,0,0,1.39.8L60.12,2.39l43.23,74.89a.82.82,0,0,0,.7.4.81.81,0,0,0,.69-1.2Z"/><path class="cls-2" d="M110.27,69.85H10A9.18,9.18,0,0,0,.8,79v31A9.18,9.18,0,0,0,10,119.2h100.3a9.18,9.18,0,0,0,9.17-9.18V79a9.18,9.18,0,0,0-9.17-9.18Z"/><path class="cls-1" d="M110.27,69.06H82.93a.79.79,0,0,0-.8.79.8.8,0,0,0,.8.8h27.34A8.38,8.38,0,0,1,118.64,79v31a8.37,8.37,0,0,1-8.37,8.37H10A8.37,8.37,0,0,1,1.6,110V79A8.38,8.38,0,0,1,10,70.65H75.62a.8.8,0,1,0,0-1.59H10A10,10,0,0,0,0,79v31a10,10,0,0,0,10,10h100.3a10,10,0,0,0,10-10V79a10,10,0,0,0-10-10Z"/><path class="cls-3" d="M109.56,75.35H10.68a4.39,4.39,0,0,0-4.39,4.39V90.23h0V97.8h0v11.52a4.4,4.4,0,0,0,4.39,4.39h98.88a4.39,4.39,0,0,0,4.39-4.39V79.73a4.39,4.39,0,0,0-4.39-4.38Z"/><path class="cls-1" d="M109.56,74.55H10.68a5.19,5.19,0,0,0-5.19,5.19V90.23A.8.8,0,0,0,6.3,91a.79.79,0,0,0,.79-.79V79.74a3.6,3.6,0,0,1,3.59-3.6h98.88a3.6,3.6,0,0,1,3.59,3.6v29.58a3.59,3.59,0,0,1-3.59,3.59H10.68a3.59,3.59,0,0,1-3.59-3.59V98a.76.76,0,0,0,0-.21.78.78,0,0,0-.77-.8.8.8,0,0,0-.86.8v11.52a5.2,5.2,0,0,0,5.19,5.19h98.88a5.2,5.2,0,0,0,5.19-5.19V79.74a5.19,5.19,0,0,0-5.19-5.19Z"/><circle class="cls-4" cx="60.12" cy="13.82" r="13.02"/><path class="cls-1" d="M60.12,0A13.82,13.82,0,1,0,73.94,13.82,13.84,13.84,0,0,0,60.12,0Zm0,26A12.22,12.22,0,1,1,72.34,13.82,12.23,12.23,0,0,1,60.12,26Z"/><circle class="cls-5" cx="60.12" cy="13.82" r="5.32"/><path class="cls-1" d="M60.12,7.7a6.12,6.12,0,1,0,6.12,6.12A6.13,6.13,0,0,0,60.12,7.7Zm0,10.64a4.52,4.52,0,1,1,4.52-4.52A4.53,4.53,0,0,1,60.12,18.34Z"/><path class="cls-6" d="M109.56,76.15h-9a3.59,3.59,0,0,1,3.59,3.59v29.58a3.59,3.59,0,0,1-3.59,3.59h9a3.59,3.59,0,0,0,3.59-3.59V79.74a3.59,3.59,0,0,0-3.59-3.59Z"/><path class="cls-5" d="M15.7,104.84V84.22h4v17.1H30.22v3.52Z"/><path class="cls-5" d="M44.48,105a9.52,9.52,0,0,1-4.11-.87,9.74,9.74,0,0,1-3.16-2.36,10.89,10.89,0,0,1-2.05-3.37,10.44,10.44,0,0,1-.73-3.85,10.32,10.32,0,0,1,.77-3.94,11.1,11.1,0,0,1,2.12-3.34,10.16,10.16,0,0,1,3.2-2.32,9.52,9.52,0,0,1,4-.86,9.18,9.18,0,0,1,4.08.9,9.87,9.87,0,0,1,3.15,2.41,11.48,11.48,0,0,1,2,3.37,10.35,10.35,0,0,1,.73,3.84,10.22,10.22,0,0,1-.76,3.9,10.85,10.85,0,0,1-2.1,3.34,9.83,9.83,0,0,1-3.2,2.31A9.59,9.59,0,0,1,44.48,105Zm-6-10.45a8.28,8.28,0,0,0,.4,2.58,7.15,7.15,0,0,0,1.18,2.22,5.63,5.63,0,0,0,8.9-.08A7.32,7.32,0,0,0,50.13,97a8.18,8.18,0,0,0,.39-2.48A7.91,7.91,0,0,0,50.1,92a7.47,7.47,0,0,0-1.19-2.21A5.56,5.56,0,0,0,47,88.21a6,6,0,0,0-5.11,0A5.84,5.84,0,0,0,40,89.82,7.16,7.16,0,0,0,38.89,92,8.16,8.16,0,0,0,38.5,94.53Z"/><path class="cls-5" d="M69.69,105a9.05,9.05,0,0,1-3.79-.81,9.84,9.84,0,0,1-3.14-2.25,10.44,10.44,0,0,1-2.1-3.35,11.15,11.15,0,0,1-.76-4.16,10.46,10.46,0,0,1,.76-4,10.21,10.21,0,0,1,2.12-3.3A9.93,9.93,0,0,1,66,84.89a10.37,10.37,0,0,1,9,.42,7.94,7.94,0,0,1,3.12,3.26l-3,2.21a5.54,5.54,0,0,0-2.19-2.35,6,6,0,0,0-3.06-.81,5.13,5.13,0,0,0-2.39.55,5.83,5.83,0,0,0-1.85,1.51,6.77,6.77,0,0,0-1.21,2.21,8.2,8.2,0,0,0-.42,2.64,8,8,0,0,0,.45,2.73,6.68,6.68,0,0,0,1.28,2.18,6,6,0,0,0,1.93,1.46,5.46,5.46,0,0,0,2.44.54,6,6,0,0,0,3-.81,9.4,9.4,0,0,0,2.69-2.38v4A8,8,0,0,1,69.69,105Zm5.75-7.81H71.29V94.24h7.46v10.6H75.44Z"/><path class="cls-5" d="M94.46,105a9.52,9.52,0,0,1-4.11-.87,9.74,9.74,0,0,1-3.16-2.36,11.08,11.08,0,0,1-2-3.37,10.65,10.65,0,0,1-.73-3.85,10.32,10.32,0,0,1,.77-3.94,11.29,11.29,0,0,1,2.12-3.34,10.16,10.16,0,0,1,3.2-2.32,9.52,9.52,0,0,1,4-.86,9.18,9.18,0,0,1,4.08.9,9.87,9.87,0,0,1,3.15,2.41,11.48,11.48,0,0,1,2,3.37,10.35,10.35,0,0,1,.73,3.84,10.22,10.22,0,0,1-.76,3.9,10.85,10.85,0,0,1-2.1,3.34,9.83,9.83,0,0,1-3.2,2.31A9.59,9.59,0,0,1,94.46,105Zm-6-10.45a8,8,0,0,0,.41,2.58,6.92,6.92,0,0,0,1.17,2.22,5.62,5.62,0,0,0,8.9-.08A7.32,7.32,0,0,0,100.11,97a8.18,8.18,0,0,0,.39-2.48,7.91,7.91,0,0,0-.42-2.57,7.47,7.47,0,0,0-1.19-2.21A5.56,5.56,0,0,0,97,88.21a6,6,0,0,0-5.11,0A5.84,5.84,0,0,0,90,89.82,7.16,7.16,0,0,0,88.87,92,8.16,8.16,0,0,0,88.48,94.53Z"/></g></g></svg>