<svg xmlns="http://www.w3.org/2000/svg" xmlns:xlink="http://www.w3.org/1999/xlink" viewBox="0 0 120 116.65"><defs><style>.cls-1{fill:#fdc830;}.cls-2{fill:#2d3a49;}.cls-3{fill:#f37335;}.cls-4{fill:#666;}.cls-5{fill:#fae6ca;}.cls-6{fill:url(#Gradiente_sem_nome_42);}.cls-7{fill:#32404f;}</style><linearGradient id="Gradiente_sem_nome_42" x1="2.12" y1="74.34" x2="147.79" y2="25.79" gradientUnits="userSpaceOnUse"><stop offset="0" stop-color="#fdc830"/><stop offset="1" stop-color="#f37335"/></linearGradient></defs><g id="Camada_2" data-name="Camada 2"><g id="Camada_1-2" data-name="Camada 1"><path class="cls-1" d="M39.09,7H76.88V26.82H39.09Z"/><path class="cls-2" d="M76.88,6.2H39.09a.77.77,0,0,0-.77.77V26.82a.78.78,0,0,0,.77.78H76.88a.78.78,0,0,0,.78-.78V7A.77.77,0,0,0,76.88,6.2Zm-.77,19.85H39.87V7.74H76.11Z"/><path class="cls-3" d="M76.88,15.07h27V26.82h-27Z"/><path class="cls-2" d="M103.88,14.29h-27a.78.78,0,0,0-.77.78V26.82a.78.78,0,0,0,.77.78h27a.78.78,0,0,0,.77-.78V15.07A.78.78,0,0,0,103.88,14.29Zm-.78,11.76H77.66V15.84H103.1Z"/><circle class="cls-4" cx="62.78" cy="104.64" r="11.23"/><path class="cls-2" d="M62.78,92.64a12,12,0,1,0,12,12A12,12,0,0,0,62.78,92.64Zm0,22.46a10.46,10.46,0,1,1,10.46-10.46A10.48,10.48,0,0,1,62.78,115.1Z"/><path class="cls-5" d="M62.78,100.05a4.6,4.6,0,1,0,4.6,4.59A4.59,4.59,0,0,0,62.78,100.05Z"/><path class="cls-2" d="M62.78,99.27a5.37,5.37,0,1,0,5.37,5.37A5.38,5.38,0,0,0,62.78,99.27Zm0,9.19a3.82,3.82,0,1,1,3.82-3.82A3.83,3.83,0,0,1,62.78,108.46Z"/><circle class="cls-4" cx="91.28" cy="104.64" r="11.23"/><path class="cls-2" d="M91.28,92.64a12,12,0,1,0,12,12A12,12,0,0,0,91.28,92.64Zm0,22.46a10.46,10.46,0,1,1,10.46-10.46A10.47,10.47,0,0,1,91.28,115.1Z"/><path class="cls-5" d="M91.28,100.05a4.6,4.6,0,1,0,4.6,4.59A4.6,4.6,0,0,0,91.28,100.05Z"/><path class="cls-2" d="M91.28,99.27a5.37,5.37,0,1,0,5.37,5.37A5.37,5.37,0,0,0,91.28,99.27Zm0,9.19a3.82,3.82,0,1,1,3.82-3.82A3.83,3.83,0,0,1,91.28,108.46Z"/><path class="cls-6" d="M115.74,26.82H34.14L47.05,77.9h54.37a3.49,3.49,0,0,0,3.31-2.41l14.32-44.11a3.48,3.48,0,0,0-3.31-4.56Z"/><path class="cls-2" d="M119.18,27.8a4.21,4.21,0,0,0-3.44-1.75H34.14a.79.79,0,0,0-.62.3.82.82,0,0,0-.14.66L46.29,78.09a.78.78,0,0,0,.76.58H77.32a.77.77,0,1,0,0-1.54H47.65L35.13,27.6h80.61a2.7,2.7,0,0,1,2.57,3.54L104,75.26a2.71,2.71,0,0,1-2.57,1.87H85a.77.77,0,1,0,0,1.54h16.4a4.23,4.23,0,0,0,4-2.94l14.33-44.11a4.24,4.24,0,0,0-.61-3.82Z"/><path class="cls-7" d="M107,85.93H49.07L28.26,3.6A3.74,3.74,0,0,0,24.64.77H4.52a3.75,3.75,0,1,0,0,7.49h17.2l2.86,11.3,2,7.83,16,63.2a3.74,3.74,0,0,0,3.63,2.82H107a3.74,3.74,0,0,0,0-7.48Z"/><path class="cls-2" d="M107,85.15H49.67L29,3.41A4.49,4.49,0,0,0,24.64,0H4.52a4.52,4.52,0,1,0,0,9h16.6l2.71,10.72a.78.78,0,0,0,.94.56.79.79,0,0,0,.56-.94L22.47,8.07a.77.77,0,0,0-.75-.58H4.52a3,3,0,0,1,0-5.94H24.64a3,3,0,0,1,2.87,2.24L48.32,86.12a.78.78,0,0,0,.75.58H107a3,3,0,0,1,0,5.94H46.16a3,3,0,0,1-2.88-2.24l-16-63.2a.79.79,0,0,0-.94-.56.77.77,0,0,0-.56.94l16,63.2a4.52,4.52,0,0,0,4.38,3.41H107a4.52,4.52,0,0,0,0-9Z"/><path class="cls-3" d="M117.93,28.71a2.7,2.7,0,0,0-2.19-1.11H108a2.7,2.7,0,0,1,2.57,3.54L96.25,75.26a2.72,2.72,0,0,1-2.58,1.87h7.75A2.71,2.71,0,0,0,104,75.26l14.33-44.12a2.71,2.71,0,0,0-.39-2.43Z"/></g></g></svg>