<svg xmlns="http://www.w3.org/2000/svg" xmlns:xlink="http://www.w3.org/1999/xlink" viewBox="0 0 78.27 120"><defs><style>.cls-1{fill:#e7c32f;}.cls-2{fill:#32404f;}.cls-3{fill:#2d3a49;}.cls-4{fill:url(#Gradiente_sem_nome_42);}.cls-5{fill:#f37335;}.cls-6{fill:#fff;}</style><linearGradient id="Gradiente_sem_nome_42" x1="-38.33" y1="136.49" x2="104.07" y2="-11.61" gradientUnits="userSpaceOnUse"><stop offset="0" stop-color="#fdc830"/><stop offset="1" stop-color="#f37335"/></linearGradient></defs><g id="Camada_2" data-name="Camada 2"><g id="Camada_1-2" data-name="Camada 1"><path class="cls-1" d="M55.19,67.65a1.49,1.49,0,0,1-1,.91,3.1,3.1,0,0,1,.74-1.21Z"/><path class="cls-2" d="M70.71.8H7.57A6.77,6.77,0,0,0,.8,7.57V78.26h0v8.16h0v26a6.77,6.77,0,0,0,6.77,6.77H70.71a6.77,6.77,0,0,0,6.77-6.77V7.57A6.78,6.78,0,0,0,70.71.8Z"/><path class="cls-3" d="M70.7,0H7.57A7.58,7.58,0,0,0,0,7.57v87a.8.8,0,0,0,1.6,0v-87a6,6,0,0,1,6-6H70.7a6,6,0,0,1,6,6V112.43a6,6,0,0,1-6,6H7.57a6,6,0,0,1-6-6v-9.58a.8.8,0,0,0-1.6,0v9.58A7.58,7.58,0,0,0,7.57,120H70.7a7.58,7.58,0,0,0,7.57-7.57V7.57A7.58,7.58,0,0,0,70.7,0Z"/><path class="cls-4" d="M65.82,8.64H12.45a3.63,3.63,0,0,0-3.62,3.63v87.3a3.62,3.62,0,0,0,3.62,3.63H65.82a3.62,3.62,0,0,0,3.63-3.63V12.27A3.63,3.63,0,0,0,65.82,8.64Z"/><path class="cls-3" d="M65.82,7.85H56.21a.8.8,0,1,0,0,1.59h9.61a2.83,2.83,0,0,1,2.83,2.83v87.3a2.83,2.83,0,0,1-2.83,2.83H12.45a2.83,2.83,0,0,1-2.83-2.83V12.27a2.83,2.83,0,0,1,2.83-2.83H48.36a.8.8,0,1,0,0-1.59H12.45A4.42,4.42,0,0,0,8,12.27v87.3A4.43,4.43,0,0,0,12.45,104H65.82a4.44,4.44,0,0,0,4.43-4.43V12.27A4.43,4.43,0,0,0,65.82,7.85Z"/><path class="cls-5" d="M39.14,106.48a4.46,4.46,0,1,0,4.45,4.46A4.46,4.46,0,0,0,39.14,106.48Z"/><path class="cls-3" d="M39.14,105.68a5.26,5.26,0,1,0,5.25,5.26A5.26,5.26,0,0,0,39.14,105.68Zm0,8.91a3.66,3.66,0,1,1,3.65-3.65A3.66,3.66,0,0,1,39.14,114.59Z"/><path class="cls-6" d="M39.14,24.09a12.1,12.1,0,1,0,12.1,12.1A12.1,12.1,0,0,0,39.14,24.09Zm3.06,7.6H42c-.44,0-.88,0-1.32,0-.6,0-1,.25-1.07,1,0,.55,0,1.82,0,1.82h2.52c-.11.88-.22,1.72-.33,2.57H39.62v6.42H37V37.08H34.78V34.52H37v-.19c0-.51,0-1,0-1.54a6.37,6.37,0,0,1,.08-1A2.89,2.89,0,0,1,38.2,29.9a3.35,3.35,0,0,1,1.91-.6c.46,0,.91,0,1.36,0,.25,0,.49,0,.73.07Z"/><path class="cls-6" d="M42.48,68.74a45.77,45.77,0,0,0-6.31,0,2.18,2.18,0,0,0-2,1.93,42.24,42.24,0,0,0,0,6.47,2.1,2.1,0,0,0,1.59,1.81,38.31,38.31,0,0,0,6.61.09,2.16,2.16,0,0,0,2-1.93,47.37,47.37,0,0,0,0-6.3A2.17,2.17,0,0,0,42.48,68.74Zm-3.22,8.41a3.29,3.29,0,1,1,3.29-3.28A3.28,3.28,0,0,1,39.26,77.15Zm3.42-5.93a.77.77,0,1,1,.77-.77A.77.77,0,0,1,42.68,71.22Z"/><path class="cls-6" d="M39.28,71.74a2.13,2.13,0,1,0,2.11,2.14A2.12,2.12,0,0,0,39.28,71.74Z"/><path class="cls-6" d="M39.14,61.74a12.1,12.1,0,1,0,12.1,12.1A12.1,12.1,0,0,0,39.14,61.74Zm6.34,15.82a3.25,3.25,0,0,1-2.81,2.57,38.1,38.1,0,0,1-7.09,0A3.26,3.26,0,0,1,33,77.28a36.77,36.77,0,0,1,.07-7.19,3.23,3.23,0,0,1,2.77-2.49,45.81,45.81,0,0,1,6.34-.07,3.55,3.55,0,0,1,2.35,1,3.43,3.43,0,0,1,1,2.19A40.8,40.8,0,0,1,45.48,77.56Z"/></g></g></svg>