<svg xmlns="http://www.w3.org/2000/svg" xmlns:xlink="http://www.w3.org/1999/xlink" viewBox="0 0 397.91 206.56"><defs><style>.cls-1,.cls-15{fill:#fff;}.cls-1{stroke:#2d3a49;stroke-miterlimit:10;stroke-width:2px;}.cls-2{fill:#2d3a49;}.cls-3{fill:#ccc;}.cls-4{fill:#a0616a;}.cls-5{fill:#f89d33;}.cls-6{fill:#32404f;}.cls-7{fill:url(#Gradiente_sem_nome_42);}.cls-8{fill:url(#Gradiente_sem_nome_42-2);}.cls-9{fill:url(#Gradiente_sem_nome_42-3);}.cls-10{fill:#3f3d56;}.cls-11{fill:url(#Gradiente_sem_nome_42-4);}.cls-12{fill:url(#Gradiente_sem_nome_42-5);}.cls-13{fill:url(#Gradiente_sem_nome_42-6);}.cls-14{fill:#fdc830;}.cls-16{fill:#ffb8b8;}.cls-17{fill:url(#Gradiente_sem_nome_42-7);}.cls-18{fill:url(#Gradiente_sem_nome_42-8);}.cls-19{fill:#e6e6e6;}.cls-20{fill:url(#Gradiente_sem_nome_42-9);}</style><linearGradient id="Gradiente_sem_nome_42" x1="92.91" y1="159.65" x2="164.96" y2="89.88" gradientUnits="userSpaceOnUse"><stop offset="0" stop-color="#fdc830"/><stop offset="1" stop-color="#f37335"/></linearGradient><linearGradient id="Gradiente_sem_nome_42-2" x1="94.69" y1="161.5" x2="166.75" y2="91.72" xlink:href="#Gradiente_sem_nome_42"/><linearGradient id="Gradiente_sem_nome_42-3" x1="82.74" y1="149.15" x2="154.79" y2="79.38" xlink:href="#Gradiente_sem_nome_42"/><linearGradient id="Gradiente_sem_nome_42-4" x1="51.16" y1="108.65" x2="81.5" y2="87.8" xlink:href="#Gradiente_sem_nome_42"/><linearGradient id="Gradiente_sem_nome_42-5" x1="55.15" y1="114.45" x2="85.49" y2="93.59" xlink:href="#Gradiente_sem_nome_42"/><linearGradient id="Gradiente_sem_nome_42-6" x1="50.57" y1="107.79" x2="80.91" y2="86.93" xlink:href="#Gradiente_sem_nome_42"/><linearGradient id="Gradiente_sem_nome_42-7" x1="270.42" y1="156.73" x2="353.85" y2="92.26" xlink:href="#Gradiente_sem_nome_42"/><linearGradient id="Gradiente_sem_nome_42-8" x1="258.76" y1="141.63" x2="342.19" y2="77.16" xlink:href="#Gradiente_sem_nome_42"/><linearGradient id="Gradiente_sem_nome_42-9" x1="268.46" y1="154.19" x2="351.89" y2="89.72" xlink:href="#Gradiente_sem_nome_42"/></defs><g id="Camada_2" data-name="Camada 2"><g id="Camada_1-2" data-name="Camada 1"><rect class="cls-1" x="100.83" y="1" width="196.25" height="34.32" rx="3.46"/><path class="cls-2" d="M145,12.13h3.31l6.17,16.79h-3.36l-1.39-4.19h-6.16l-1.41,4.19H138.8Zm4,10.31-2.31-6.93-2.32,6.93Z"/><path class="cls-2" d="M165.49,29a7.4,7.4,0,0,1-3.09-.67,8.08,8.08,0,0,1-2.55-1.83,8.53,8.53,0,0,1-1.71-2.73,9.15,9.15,0,0,1-.62-3.38,8.62,8.62,0,0,1,.62-3.25,8.19,8.19,0,0,1,4.32-4.51A8,8,0,0,1,165.7,12a7.81,7.81,0,0,1,4.06,1,6.56,6.56,0,0,1,2.54,2.66l-2.44,1.79a4.51,4.51,0,0,0-1.78-1.91,5,5,0,0,0-2.5-.66,4.16,4.16,0,0,0-1.93.45,4.74,4.74,0,0,0-1.52,1.23,5.74,5.74,0,0,0-1,1.79,6.68,6.68,0,0,0-.34,2.15,6.4,6.4,0,0,0,.37,2.23,5.31,5.31,0,0,0,1,1.77,5,5,0,0,0,1.57,1.19,4.36,4.36,0,0,0,2,.44,4.9,4.9,0,0,0,2.45-.66,7.7,7.7,0,0,0,2.19-1.94v3.22A6.53,6.53,0,0,1,165.49,29Zm4.68-6.36h-3.38V20.29h6.08v8.63h-2.7Z"/><path class="cls-2" d="M190.15,26.06v2.86H178.49V12.13h11.45V15h-8.18v4h7.07v2.65h-7.07v4.38ZM180.79,9.67l2.5-2.39h2.3l2.5,2.39-1.63.76-2-1.49-2,1.49Z"/><path class="cls-2" d="M198.8,18.14V28.92h-3.26V12.13h2.6l8.68,11.07v-11h3.26V28.92h-2.72Z"/><path class="cls-2" d="M215.4,20.38a8.49,8.49,0,0,1,.56-3,8.67,8.67,0,0,1,1.62-2.7,7.68,7.68,0,0,1,2.6-1.94,8.14,8.14,0,0,1,3.5-.72,7.58,7.58,0,0,1,4,1,6.47,6.47,0,0,1,2.52,2.65l-2.51,1.72a3.93,3.93,0,0,0-1.11-1.5,4.06,4.06,0,0,0-1.46-.78,5.51,5.51,0,0,0-1.54-.22,4.42,4.42,0,0,0-2.14.49,4.78,4.78,0,0,0-1.52,1.3,5.46,5.46,0,0,0-.91,1.8,6.81,6.81,0,0,0-.3,2,6.45,6.45,0,0,0,.36,2.14,5.85,5.85,0,0,0,1,1.82,4.74,4.74,0,0,0,1.56,1.25,4.33,4.33,0,0,0,2,.46,5.17,5.17,0,0,0,1.58-.26,4.4,4.4,0,0,0,1.49-.83,3.73,3.73,0,0,0,1.07-1.46l2.67,1.53a5,5,0,0,1-1.62,2.13,8,8,0,0,1-2.52,1.33,9,9,0,0,1-2.77.45,7.19,7.19,0,0,1-3.28-.75,8.23,8.23,0,0,1-2.57-2A9.4,9.4,0,0,1,216,23.51,8.57,8.57,0,0,1,215.4,20.38Z"/><path class="cls-2" d="M235.47,28.92V12.13h3.27V28.92Z"/><path class="cls-2" d="M249.64,12.13H253l6.17,16.79h-3.36l-1.4-4.19H248.2l-1.4,4.19h-3.36Zm4,10.31-2.31-6.93L249,22.44Z"/><path class="cls-3" d="M178.4,155.27c0-4.15-15.64-7.52-34.92-7.52s-34.92,3.37-34.92,7.52c0,2.66,6.42,5,16.11,6.34v41.21a3.5,3.5,0,0,0,7,0V162.35c3.69.29,7.67.44,11.82.44s8.12-.15,11.82-.44v40.47a3.49,3.49,0,0,0,7,0V161.61C172,160.27,178.4,157.93,178.4,155.27Z"/><polygon class="cls-4" points="171.68 199.55 178.26 199.55 181.4 174.15 171.68 174.15 171.68 199.55"/><path class="cls-5" d="M191,205.67h-20.7v-8H183a8,8,0,0,1,8,8Z"/><polygon class="cls-4" points="181.96 195.88 188.24 193.9 183.63 168.73 174.35 171.64 181.96 195.88"/><path class="cls-5" d="M202.19,195.94l-19.75,6.19h0l-2.39-7.63h0l12.12-3.8a8,8,0,0,1,10,5.24Z"/><path class="cls-6" d="M177.55,184.18,165.5,152.55c-2.7.64-25.37,5.66-33-2.43-2.6-2.77-3.11-6.78-1.51-11.93l4.43-5.57h.14c1.68.09,41.06,2.3,43.76,14.18,2.28,10,6.44,28.69,7.66,34.17a2.44,2.44,0,0,1-1.51,2.79l-4.85,1.82a2.4,2.4,0,0,1-.84.15A2.43,2.43,0,0,1,177.55,184.18Z"/><path class="cls-6" d="M170.57,187.94l-12-31.62c-2.7.63-25.37,5.65-33-2.44-2.61-2.77-3.11-6.78-1.51-11.93l4.43-5.57h.14c1.67.09,41.06,2.3,43.76,14.18,2.28,10,6.43,28.69,7.65,34.17a2.42,2.42,0,0,1-1.51,2.79l-4.84,1.82a2.45,2.45,0,0,1-.85.15A2.42,2.42,0,0,1,170.57,187.94Z"/><path class="cls-4" d="M186.85,112.13a4.94,4.94,0,0,0-.47.75l-26.5,2.79-3.81-5.23-8.65,4.73,7.49,12.69,32.5-8.29a5.64,5.64,0,1,0-.1-8,3.89,3.89,0,0,0-.46.53Z"/><path class="cls-7" d="M123.88,143.62a2.41,2.41,0,0,1-1-2.33c1.49-9.86-.22-24-1.93-34.08a13.31,13.31,0,0,1,10.89-15.37,13.15,13.15,0,0,1,3.91-.08,41.82,41.82,0,0,1,5.33,1h0a13.21,13.21,0,0,1,10,13.15c-.25,9.75,1.73,21.92,2.59,26.7a2.42,2.42,0,0,1-.45,1.89,2.37,2.37,0,0,1-1.66.94c-9.57,1-19.88,5.64-25.18,8.33a2.35,2.35,0,0,1-1.1.27A2.33,2.33,0,0,1,123.88,143.62Z"/><path class="cls-8" d="M149.7,118.2a2.42,2.42,0,0,1-1.33-1.28L143,104.59a6.18,6.18,0,0,1,11.34-4.91L159.71,112a2.42,2.42,0,0,1-1.25,3.18l-6.91,3a2.38,2.38,0,0,1-1.85,0Z"/><path class="cls-4" d="M161.6,111.05a4.58,4.58,0,0,0-.47.76l-26.5,2.79-3.81-5.23-8.65,4.72,7.49,12.69,32.5-8.28a5.62,5.62,0,1,0-.56-7.45Z"/><path class="cls-9" d="M124.45,118.74a2.44,2.44,0,0,1-1.33-1.29l-5.33-12.32a6.18,6.18,0,1,1,11.33-4.92h0l5.33,12.33a2.41,2.41,0,0,1-1.26,3.17l-6.9,3a2.38,2.38,0,0,1-1.85,0Z"/><circle class="cls-4" cx="134.79" cy="74.37" r="13.2"/><path class="cls-2" d="M125.36,83.42a1.13,1.13,0,0,1,.71-1.45,1.36,1.36,0,0,1,.29-.06,2.63,2.63,0,0,1,1.86.92,7.7,7.7,0,0,0,1.65,1.42,1.43,1.43,0,0,0,1.87-.34,2.6,2.6,0,0,0-.1-2,19.89,19.89,0,0,1-.87-5.25A9.25,9.25,0,0,1,132.09,71a7.41,7.41,0,0,1,6.36-2.7,42,42,0,0,1,7.15,1.26,2.4,2.4,0,0,0,2.34-.39c.58-.68.37-1.77.12-2.69-.65-2.37-1.33-4.83-2.83-6.74a10.16,10.16,0,0,0-6.48-3.65,15.6,15.6,0,0,0-7.23.82,19.42,19.42,0,0,0-9.5,6.62,15.73,15.73,0,0,0-3,11.6,14.35,14.35,0,0,0,5.31,9.06Z"/><path class="cls-10" d="M75,115.19A65.38,65.38,0,0,1,80.4,94.5q1.23-2.75,2.7-5.35a.42.42,0,0,0-.16-.55.4.4,0,0,0-.53.14A66.4,66.4,0,0,0,75,109.15q-.56,3-.83,6C74.13,115.7,74.93,115.7,75,115.19Z"/><circle class="cls-11" cx="85.03" cy="85.37" r="5.06"/><path class="cls-10" d="M75.49,115.32A42.54,42.54,0,0,1,79,101.9c.53-1.18,1.12-2.34,1.75-3.47a.26.26,0,0,0-.1-.35.25.25,0,0,0-.34.09,42.89,42.89,0,0,0-4.8,13.23c-.24,1.3-.42,2.61-.54,3.92C75,115.66,75.46,115.65,75.49,115.32Z"/><circle class="cls-12" cx="82.02" cy="95.98" r="3.28"/><path class="cls-10" d="M74.84,115a42.58,42.58,0,0,1-5.48-12.75c-.31-1.26-.56-2.53-.76-3.81a.25.25,0,0,0-.3-.21.26.26,0,0,0-.21.28,43.12,43.12,0,0,0,4.36,13.39q.92,1.75,2,3.42c.18.28.59,0,.41-.32Z"/><circle class="cls-13" cx="68.09" cy="95.75" r="3.28"/><path class="cls-3" d="M64.77,117.92v-6.45a2.42,2.42,0,0,1,2.41-2.42h15a2.42,2.42,0,0,1,2.41,2.42v6.45a2.41,2.41,0,0,1-2.41,2.41h-15A2.41,2.41,0,0,1,64.77,117.92Z"/><path class="cls-3" d="M157.18,116.05h42.44a1.88,1.88,0,0,1,1.88,1.88h0a1.88,1.88,0,0,1-1.88,1.88H157.18a1.88,1.88,0,0,1-1.88-1.88h0A1.88,1.88,0,0,1,157.18,116.05Z"/><path class="cls-14" d="M228.09,119.81H180.28a3.49,3.49,0,0,1-3.49-3.49V90a3.5,3.5,0,0,1,3.49-3.5h47.81a3.5,3.5,0,0,1,3.49,3.5v26.32A3.49,3.49,0,0,1,228.09,119.81Z"/><circle class="cls-15" cx="204.18" cy="103.16" r="3.22"/><path class="cls-3" d="M349.78,155.27c0-4.15-15.64-7.52-34.92-7.52s-34.92,3.37-34.92,7.52c0,2.66,6.42,5,16.11,6.34v41.21a3.5,3.5,0,0,0,7,0V162.35c3.69.29,7.67.44,11.82.44s8.12-.15,11.81-.44v40.47a3.5,3.5,0,0,0,7,0V161.61C343.35,160.27,349.78,157.93,349.78,155.27Z"/><circle class="cls-2" cx="318.72" cy="71.38" r="15.04"/><polygon class="cls-16" points="281.28 200.09 274.69 200.09 271.56 174.68 281.28 174.68 281.28 200.09"/><path class="cls-5" d="M270,198.21h12.7v8H262a8,8,0,0,1,8-8Z"/><polygon class="cls-16" points="271 196.41 264.72 194.44 269.33 169.26 278.61 172.17 271 196.41"/><path class="cls-5" d="M260.79,191.24l12.12,3.8h0l-2.39,7.63h0l-19.75-6.2h0A8,8,0,0,1,260.79,191.24Z"/><path class="cls-6" d="M273.14,186.28a2.41,2.41,0,0,1-.84-.16l-4.85-1.81a2.44,2.44,0,0,1-1.51-2.79c1.22-5.48,5.38-24.16,7.66-34.18,2.7-11.88,42.08-14.08,43.76-14.17h.14l4.43,5.57c1.6,5.14,1.09,9.16-1.51,11.93-7.59,8.08-30.26,3.07-33,2.43l-12,31.63A2.43,2.43,0,0,1,273.14,186.28Z"/><path class="cls-6" d="M280.13,190a2.25,2.25,0,0,1-.85-.16l-4.84-1.81a2.42,2.42,0,0,1-1.51-2.79c1.22-5.48,5.37-24.16,7.65-34.17,2.7-11.89,42.09-14.09,43.76-14.18h.14l4.43,5.57c1.6,5.15,1.1,9.16-1.51,11.93-7.59,8.08-30.26,3.07-33,2.43l-12.05,31.63A2.42,2.42,0,0,1,280.13,190Z"/><path class="cls-16" d="M266.11,112.66a4.58,4.58,0,0,1,.47.76l26.5,2.79,3.81-5.23,8.65,4.72-7.49,12.69-32.5-8.28a5.62,5.62,0,1,1,.56-7.45Z"/><path class="cls-17" d="M327.68,144.62a2.35,2.35,0,0,1-1.1-.27C321.28,141.66,311,137,301.4,136a2.31,2.31,0,0,1-1.66-.94,2.38,2.38,0,0,1-.45-1.88c.86-4.78,2.84-17,2.59-26.7a13.21,13.21,0,0,1,10-13.15h0a43.88,43.88,0,0,1,5.32-1,13.33,13.33,0,0,1,14.89,11.54,13.14,13.14,0,0,1-.08,3.91c-1.71,10.11-3.43,24.23-1.93,34.08a2.43,2.43,0,0,1-1,2.34A2.33,2.33,0,0,1,327.68,144.62Z"/><path class="cls-18" d="M302.37,118.91a2.43,2.43,0,0,1-1-.2l-6.91-3a2.41,2.41,0,0,1-1.25-3.17l5.33-12.33a6.18,6.18,0,0,1,11.35,4.9h0l-5.33,12.32a2.42,2.42,0,0,1-2.22,1.46Z"/><circle class="cls-16" cx="318.17" cy="74.9" r="13.2"/><path class="cls-2" d="M304.73,68.42a47.59,47.59,0,0,0,20.59,6.79l-2.17-2.6a16,16,0,0,0,4.93,1,5.4,5.4,0,0,0,4.4-2,5,5,0,0,0,.33-4.64,9.49,9.49,0,0,0-3-3.74,17.8,17.8,0,0,0-16.57-3,10.66,10.66,0,0,0-4.95,3.17c-1.25,1.55-3.65,2.92-3,4.8Z"/><path class="cls-2" d="M320.39,57.77a40.69,40.69,0,0,0-14.76-9.54c-3.57-1.32-7.45-2.14-11.18-1.39s-7.25,3.33-8.29,7c-.85,3,0,6.22,1.35,9s3.08,5.43,4.15,8.35a19,19,0,0,1-19.18,25.55c3.67.49,7,2.22,10.62,3.13s7.81.86,10.47-1.71c2.82-2.71,2.88-7.13,2.74-11l-.61-17.43c-.1-3-.19-6,.88-8.78s3.61-5.19,6.57-5.17c2.25,0,4.24,1.38,6,2.73s3.71,2.77,5.95,3,4.79-1.46,4.62-3.7"/><polygon class="cls-19" points="259.05 102.95 289.43 103.66 293.83 136.14 265.78 136.77 259.05 102.95"/><path class="cls-16" d="M291.36,111.59a4.94,4.94,0,0,1,.47.75l26.5,2.79,3.81-5.23,8.65,4.73-7.49,12.69L290.8,119a5.64,5.64,0,1,1,.1-8,4.6,4.6,0,0,1,.46.53Z"/><path class="cls-20" d="M327.62,119.45a2.43,2.43,0,0,1-1-.2l-6.91-3a2.42,2.42,0,0,1-1.25-3.18l5.33-12.32a6.18,6.18,0,1,1,11.35,4.9h0L329.84,118a2.42,2.42,0,0,1-2.22,1.46Z"/><path class="cls-2" d="M265.16,119.28H51.34a3.49,3.49,0,1,0,0,7h6.18v76a3.49,3.49,0,0,0,7,0V133l39.15,71a3.49,3.49,0,0,0,6-3.5L68.78,126.26h187v0l-40.9,74.13a3.49,3.49,0,0,0,6,3.5h0l34.85-63.17v61.52a3.49,3.49,0,0,0,7,0V128.1l1-1.84h1.4a3.49,3.49,0,0,0,0-7Z"/><path class="cls-2" d="M397.28,206.56H.64a.64.64,0,0,1,0-1.28H397.28a.64.64,0,0,1,0,1.28Z"/></g></g></svg>