<svg xmlns="http://www.w3.org/2000/svg" xmlns:xlink="http://www.w3.org/1999/xlink" viewBox="0 0 261.58 207"><defs><style>.cls-1,.cls-10{fill:#fff;}.cls-1{stroke:#2d3a49;stroke-miterlimit:10;stroke-width:2px;}.cls-2{fill:#2d3a49;}.cls-3{fill:#3f3d56;}.cls-4{fill:#ffb8b8;}.cls-5{fill:#2f2e41;}.cls-6{fill:url(#Gradiente_sem_nome_42);}.cls-7{fill:url(#Gradiente_sem_nome_42-2);}.cls-8{fill:url(#Gradiente_sem_nome_42-3);}.cls-9{fill:#fdc830;}</style><linearGradient id="Gradiente_sem_nome_42" x1="42.4" y1="169.05" x2="185.11" y2="100.59" gradientUnits="userSpaceOnUse"><stop offset="0" stop-color="#fdc830"/><stop offset="1" stop-color="#f37335"/></linearGradient><linearGradient id="Gradiente_sem_nome_42-2" x1="46.8" y1="178.22" x2="189.51" y2="109.77" xlink:href="#Gradiente_sem_nome_42"/><linearGradient id="Gradiente_sem_nome_42-3" x1="41.76" y1="167.72" x2="184.47" y2="99.26" xlink:href="#Gradiente_sem_nome_42"/></defs><g id="Camada_2" data-name="Camada 2"><g id="Camada_1-2" data-name="Camada 1"><rect class="cls-1" x="20.14" y="1" width="221.3" height="29.01" rx="3.46"/><path class="cls-2" d="M43.89,23.84V7.17H55.1V10h-8v4.3h6.63v2.63H47.13v6.9Z"/><path class="cls-2" d="M60.19,23.84V7.17h7.37a4.89,4.89,0,0,1,2.13.47,5.41,5.41,0,0,1,1.69,1.27,5.69,5.69,0,0,1,1.1,1.78,5.45,5.45,0,0,1,.39,2,5.79,5.79,0,0,1-.36,2,5.16,5.16,0,0,1-1.05,1.71,4.69,4.69,0,0,1-1.59,1.12l3.8,6.27H70.1l-3.43-5.59H63.43v5.59Zm3.24-8.43h4.06a1.71,1.71,0,0,0,1.08-.36,2.51,2.51,0,0,0,.76-1,3.3,3.3,0,0,0,.28-1.36,2.81,2.81,0,0,0-1.17-2.35A1.89,1.89,0,0,0,67.35,10H63.43Z"/><path class="cls-2" d="M90.2,21v2.84H78.62V7.17H90V10H81.87v4h7v2.63h-7V21Z"/><path class="cls-2" d="M107.13,21v2.84H95.56V7.17h11.36V10H98.8v4h7v2.63h-7V21Z"/><path class="cls-2" d="M112.49,23.84V7.17h3.24V21h8.5v2.84Z"/><path class="cls-2" d="M133.55,7.17h3.29L143,23.84h-3.34l-1.38-4.15h-6.12l-1.4,4.15H127.4Zm3.94,10.24-2.3-6.88-2.3,6.88Z"/><path class="cls-2" d="M150.86,13.14v10.7h-3.24V7.17h2.58l8.62,11v-11h3.24V23.84h-2.7Z"/><path class="cls-2" d="M167.34,15.37a8.65,8.65,0,0,1,.55-3,8.86,8.86,0,0,1,1.61-2.68,7.87,7.87,0,0,1,6.06-2.64,7.59,7.59,0,0,1,4,1,6.5,6.5,0,0,1,2.5,2.63l-2.49,1.72a3.9,3.9,0,0,0-1.1-1.49,4.06,4.06,0,0,0-1.46-.78,5.37,5.37,0,0,0-1.52-.22,4.38,4.38,0,0,0-2.13.49,4.72,4.72,0,0,0-1.51,1.29,5.51,5.51,0,0,0-.91,1.79,7,7,0,0,0-.29,2,6.55,6.55,0,0,0,.35,2.12,5.78,5.78,0,0,0,1,1.81,4.81,4.81,0,0,0,1.55,1.25,4.37,4.37,0,0,0,2,.46,5.17,5.17,0,0,0,1.58-.26,4.61,4.61,0,0,0,1.48-.82,3.83,3.83,0,0,0,1.05-1.46l2.66,1.53a5,5,0,0,1-1.61,2.11,7.86,7.86,0,0,1-2.5,1.31,8.89,8.89,0,0,1-2.75.45,7.2,7.2,0,0,1-3.26-.74,8.09,8.09,0,0,1-2.55-2,9.53,9.53,0,0,1-1.67-2.77A8.55,8.55,0,0,1,167.34,15.37Z"/><path class="cls-2" d="M198.86,21v2.84H187.28V7.17h11.37V10h-8.13v4h7v2.63h-7V21Z"/><path class="cls-2" d="M204.21,23.84V7.17h7.37a4.89,4.89,0,0,1,2.13.47,5.41,5.41,0,0,1,1.69,1.27,5.69,5.69,0,0,1,1.1,1.78,5.45,5.45,0,0,1,.39,2,5.79,5.79,0,0,1-.36,2,5.16,5.16,0,0,1-1.05,1.71,4.69,4.69,0,0,1-1.59,1.12l3.8,6.27h-3.57l-3.43-5.59h-3.24v5.59Zm3.24-8.43h4.06a1.71,1.71,0,0,0,1.08-.36,2.51,2.51,0,0,0,.76-1,3.3,3.3,0,0,0,.28-1.36,2.81,2.81,0,0,0-1.17-2.35,1.89,1.89,0,0,0-1.09-.35h-3.92Z"/><path class="cls-3" d="M260.9,172.73H.68a.69.69,0,0,1,0-1.37H260.9a.69.69,0,0,1,0,1.37Z"/><circle class="cls-2" cx="135.95" cy="64.82" r="18.44"/><polygon class="cls-4" points="118.43 183.2 117.94 174.84 149.95 168.97 150.68 181.31 118.43 183.2"/><path class="cls-5" d="M120,168.73l1,16.12h0l-10.15.59h0l-1.54-26.27h0A10.16,10.16,0,0,1,120,168.73Z"/><polygon class="cls-4" points="132.35 183.12 127.04 189.59 99.56 172.16 107.4 162.61 132.35 183.12"/><path class="cls-2" d="M121.39,192.69l10.26-12.48h0l7.85,6.46h0L122.79,207h0A10.17,10.17,0,0,1,121.39,192.69Z"/><path class="cls-5" d="M117.05,153l-3.63,17.13a2.74,2.74,0,0,0,2.11,3.24,3,3,0,0,0,.52.05l35.72.58a2.72,2.72,0,0,0,2.77-2.69,2.32,2.32,0,0,0,0-.52l-3.12-17.7a2.73,2.73,0,0,0-2.69-2.26h-29A2.75,2.75,0,0,0,117.05,153Z"/><path class="cls-2" d="M123,159.07s-34.83-21.86-41.66-10.25c-3.42,5.81-1.71,11.44.85,15.63a23.64,23.64,0,0,0,9.84,8.8l28.24,13.82,10.24-10.93L123.66,170Z"/><path class="cls-2" d="M140.74,155.65s45.07-13,36.19,11.61-42.34,15-42.34,15l-3.42-10.24,11.61-8.2Z"/><circle class="cls-4" cx="136.19" cy="69.03" r="16.77"/><path class="cls-4" d="M124.49,161.71a6.88,6.88,0,0,1,8.79-4.14,7.32,7.32,0,0,1,1.1.51l18.43-16,1.67,12.58-17.76,13.26a6.91,6.91,0,0,1-12.23-6.21Z"/><path class="cls-4" d="M144.89,160.21a6.88,6.88,0,0,0-8.79-4.14,7.32,7.32,0,0,0-1.1.51l-18.43-16-1.67,12.58,17.76,13.26a6.91,6.91,0,0,0,12.23-6.21Z"/><path class="cls-6" d="M137.06,158.36a89.45,89.45,0,0,1-20.66-2.72l-.2,0-9.36-43.06A15.86,15.86,0,0,1,117,94.13a54.91,54.91,0,0,1,35-.7h0a16,16,0,0,1,10.67,19L152.3,155.55l-.15.07C147.81,157.68,142.37,158.36,137.06,158.36Z"/><path class="cls-7" d="M142.07,165.2a3.36,3.36,0,0,1-.89-.13,3.05,3.05,0,0,1-2-1.92l-2.22-6.31a3,3,0,0,1,.89-3.35l25.11-15.07L153,94.25l.25-.06c.1,0,10.25-2.33,14.4,8.75,2.91,7.77,13.68,24.64,12.92,36.05a10.15,10.15,0,0,1-8.41,9.37l-28.27,16.2A3.06,3.06,0,0,1,142.07,165.2Z"/><path class="cls-8" d="M129.16,165.2a3,3,0,0,1-1.86-.64L97,149.73a10.17,10.17,0,0,1-8.42-9.37c-.76-11.41,12.06-29.65,15-37.42,4.16-11.08,14.3-8.77,14.41-8.75l.25.06-12,45.53,27.16,13.71a3.06,3.06,0,0,1,.89,3.35l-2.22,6.31a3.07,3.07,0,0,1-2,1.92A3.29,3.29,0,0,1,129.16,165.2Z"/><path class="cls-9" d="M165.32,172.05H104.54a4.79,4.79,0,0,1-4.78-4.79V133.8a4.78,4.78,0,0,1,4.78-4.78h60.78a4.78,4.78,0,0,1,4.78,4.78v33.46A4.79,4.79,0,0,1,165.32,172.05Z"/><circle class="cls-10" cx="134.93" cy="150.53" r="4.1"/><path class="cls-2" d="M119.24,68.34c-1-2.52.64-5.52,3.06-6.74s5.34-1,7.93-.19c2.17.68,4.21,1.73,6.33,2.56a14.28,14.28,0,0,0,6.67,1.18,6.7,6.7,0,0,0,5.44-3.6,6.65,6.65,0,0,0-1.17-6.64,12.93,12.93,0,0,0-5.89-3.78c-5-1.75-10.75-1.81-15.38.75s-7.79,8-6.83,13.2"/></g></g></svg>