<svg xmlns="http://www.w3.org/2000/svg" xmlns:xlink="http://www.w3.org/1999/xlink" viewBox="0 0 1500.32 508.75"><defs><style>.cls-1{isolation:isolate;}.cls-2{mix-blend-mode:multiply;}.cls-3{fill:url(#radial-gradient);}.cls-4{fill:#fff;}.cls-5{fill:#2d3a49;}.cls-6{fill:url(#radial-gradient-2);}.cls-17,.cls-7{fill:#fdc830;}.cls-8{fill:url(#radial-gradient-3);}.cls-9{fill:url(#radial-gradient-4);}.cls-10,.cls-22{fill:#f89d33;}.cls-11{fill:url(#radial-gradient-5);}.cls-12{fill:url(#radial-gradient-6);}.cls-13,.cls-23{fill:#f37335;}.cls-14{font-size:22px;}.cls-14,.cls-20{font-family:GillSansMT, Gill Sans MT;}.cls-15{letter-spacing:0.03em;}.cls-16{letter-spacing:-0.02em;}.cls-17,.cls-22,.cls-23{font-size:35px;font-family:Montserrat-Bold, Montserrat;font-weight:700;}.cls-18{letter-spacing:-0.01em;}.cls-19{letter-spacing:-0.02em;}.cls-20{font-size:24px;}.cls-21{letter-spacing:-0.01em;}.cls-24{letter-spacing:-0.04em;}.cls-25{letter-spacing:-0.01em;}</style><radialGradient id="radial-gradient" cx="254.37" cy="254.37" r="254.37" gradientTransform="translate(254.37 -105.36) rotate(45)" gradientUnits="userSpaceOnUse"><stop offset="0.18"/><stop offset="0.24" stop-color="#242424"/><stop offset="0.36" stop-color="#5d5d5d"/><stop offset="0.48" stop-color="#8f8f8f"/><stop offset="0.59" stop-color="#b7b7b7"/><stop offset="0.7" stop-color="#d6d6d6"/><stop offset="0.81" stop-color="#ededed"/><stop offset="0.91" stop-color="#fafafa"/><stop offset="1" stop-color="#fff"/></radialGradient><radialGradient id="radial-gradient-2" cx="416.71" cy="114.66" r="84.18" gradientTransform="translate(203.13 -261.08) rotate(45)" xlink:href="#radial-gradient"/><radialGradient id="radial-gradient-3" cx="750.16" cy="254.37" r="254.37" gradientTransform="translate(399.59 -455.94) rotate(45)" xlink:href="#radial-gradient"/><radialGradient id="radial-gradient-4" cx="912.5" cy="114.66" r="84.18" gradientTransform="translate(348.34 -611.65) rotate(45)" xlink:href="#radial-gradient"/><radialGradient id="radial-gradient-5" cx="1245.94" cy="254.37" r="254.37" gradientTransform="translate(544.8 -806.51) rotate(45)" xlink:href="#radial-gradient"/><radialGradient id="radial-gradient-6" cx="1408.28" cy="114.66" r="84.18" gradientTransform="translate(146.81 -521.81) rotate(22.12)" xlink:href="#radial-gradient"/></defs><g class="cls-1"><g id="Camada_2" data-name="Camada 2"><g id="Camada_1-2" data-name="Camada 1"><g class="cls-2"><circle class="cls-3" cx="254.37" cy="254.37" r="254.37" transform="translate(-105.36 254.37) rotate(-45)"/></g><circle class="cls-4" cx="284.51" cy="240.71" r="166.34" transform="translate(-86.87 271.68) rotate(-45)"/><path class="cls-5" d="M284.51,444.77A204.11,204.11,0,0,1,205.08,52.69,203.88,203.88,0,0,1,428.8,96.42l-4.46,4.45a198,198,0,1,0,57.93,139.84v-3.15h87.31v6.3h-81a203.9,203.9,0,0,1-204,200.91Z"/><polygon class="cls-5" points="548.7 266.48 544.4 261.87 567.16 240.71 544.4 219.55 548.7 214.94 576.42 240.71 548.7 266.48"/><g class="cls-2"><circle class="cls-6" cx="416.71" cy="114.66" r="84.18" transform="translate(40.97 328.24) rotate(-45)"/></g><circle class="cls-7" cx="426.68" cy="110.14" r="55.05" transform="translate(47.09 333.97) rotate(-45)"/><path class="cls-4" d="M426.68,169.91a59.77,59.77,0,1,1,59.78-59.77A59.84,59.84,0,0,1,426.68,169.91Zm0-110.09A50.32,50.32,0,1,0,477,110.14,50.37,50.37,0,0,0,426.68,59.82Z"/><g class="cls-2"><circle class="cls-8" cx="750.16" cy="254.37" r="254.37" transform="translate(39.85 604.95) rotate(-45)"/></g><circle class="cls-4" cx="780.3" cy="240.71" r="166.34" transform="translate(58.34 622.25) rotate(-45)"/><path class="cls-5" d="M780.3,444.77A204.11,204.11,0,0,1,700.87,52.69,203.88,203.88,0,0,1,924.59,96.42l-4.46,4.45a198,198,0,1,0,57.92,139.84v-3.15h87.32v6.3h-81a203.89,203.89,0,0,1-204,200.91Z"/><polygon class="cls-5" points="1044.49 266.48 1040.19 261.87 1062.95 240.71 1040.19 219.55 1044.49 214.94 1072.2 240.71 1044.49 266.48"/><g class="cls-2"><circle class="cls-9" cx="912.5" cy="114.66" r="84.18" transform="translate(186.19 678.82) rotate(-45)"/></g><circle class="cls-10" cx="922.47" cy="110.14" r="55.05" transform="translate(666.77 1003.28) rotate(-80.83)"/><path class="cls-4" d="M922.47,169.91a59.77,59.77,0,1,1,59.77-59.77A59.83,59.83,0,0,1,922.47,169.91Zm0-110.09a50.32,50.32,0,1,0,50.32,50.32A50.37,50.37,0,0,0,922.47,59.82Z"/><g class="cls-2"><circle class="cls-11" cx="1245.94" cy="254.37" r="254.37" transform="translate(185.06 955.52) rotate(-45)"/></g><circle class="cls-4" cx="1276.08" cy="240.71" r="166.34" transform="translate(203.55 972.83) rotate(-45)"/><path class="cls-5" d="M1276.08,444.77a204.11,204.11,0,0,1-79.43-392.08,203.88,203.88,0,0,1,223.72,43.73l-4.46,4.45a198,198,0,1,0,57.92,139.84h6.31a203.9,203.9,0,0,1-204.06,204.06Z"/><g class="cls-2"><circle class="cls-12" cx="1408.28" cy="114.66" r="84.18" transform="translate(60.47 538.69) rotate(-22.12)"/></g><circle class="cls-13" cx="1418.25" cy="110.14" r="55.05" transform="matrix(0.16, -0.99, 0.99, 0.16, 1083.57, 1492.73)"/><path class="cls-4" d="M1418.25,169.91A59.77,59.77,0,1,1,1478,110.14,59.83,59.83,0,0,1,1418.25,169.91Zm0-110.09a50.32,50.32,0,1,0,50.32,50.32A50.38,50.38,0,0,0,1418.25,59.82Z"/><path class="cls-4" d="M414.93,127.65q-6.76,0-10.13-4.6t-3.36-12.28q0-7.68,3.36-12.27t10.13-4.6q6.76,0,10.13,4.6t3.36,12.27q0,7.68-3.36,12.28T414.93,127.65Zm-4.81-24.74a17.35,17.35,0,0,0-1.54,7.89,17.34,17.34,0,0,0,1.54,7.88,5.36,5.36,0,0,0,9.62,0,17.34,17.34,0,0,0,1.54-7.88,17.35,17.35,0,0,0-1.54-7.89,5.36,5.36,0,0,0-9.62,0Z"/><path class="cls-4" d="M431.54,94.65h13.21v32.62h-7V100.86h-6.21Z"/><path class="cls-4" d="M906.87,127.65q-6.78,0-10.13-4.6t-3.36-12.28q0-7.68,3.36-12.27t10.13-4.6q6.76,0,10.13,4.6t3.36,12.27q0,7.68-3.36,12.28T906.87,127.65Zm-4.81-24.74a17.22,17.22,0,0,0-1.54,7.89,17.21,17.21,0,0,0,1.54,7.88,5.36,5.36,0,0,0,9.62,0,17.35,17.35,0,0,0,1.53-7.88,17.36,17.36,0,0,0-1.53-7.89,5.36,5.36,0,0,0-9.62,0Z"/><path class="cls-4" d="M938.44,107.37a6,6,0,0,0,1.24-3.39,3.73,3.73,0,0,0-1.08-2.73,3.67,3.67,0,0,0-2.75-1.09c-2.05,0-4,1.46-5.83,4.38l-5.84-3.45a18.05,18.05,0,0,1,5-5.37,12.32,12.32,0,0,1,6.95-1.82,11.19,11.19,0,0,1,7.42,2.69,9,9,0,0,1,3.2,7.3,9.86,9.86,0,0,1-1.28,4.83,31.69,31.69,0,0,1-4.74,5.9l-5.88,6.12h12.88v6.53h-23v-5.41l9.57-9.8A41.74,41.74,0,0,0,938.44,107.37Z"/><path class="cls-4" d="M1401.46,127.65q-6.76,0-10.12-4.6T1388,110.77q0-7.68,3.36-12.27t10.12-4.6q6.76,0,10.13,4.6t3.36,12.27q0,7.68-3.36,12.28T1401.46,127.65Zm-4.8-24.74a17.22,17.22,0,0,0-1.54,7.89,17.21,17.21,0,0,0,1.54,7.88,5.36,5.36,0,0,0,9.61,0,17.21,17.21,0,0,0,1.54-7.88,17.22,17.22,0,0,0-1.54-7.89,5.36,5.36,0,0,0-9.61,0Z"/><path class="cls-4" d="M1420.13,100.86V94.65h20v5l-6.68,7.61a9.46,9.46,0,0,1,6.07,3.29,9.35,9.35,0,0,1,2.15,6.09,10,10,0,0,1-3.48,8,13.39,13.39,0,0,1-8.89,2.92,19.31,19.31,0,0,1-11-3.83l3-5.79q4.62,3.27,8.26,3.27a5.83,5.83,0,0,0,3.62-1.08,3.66,3.66,0,0,0,1.42-3.1,3.77,3.77,0,0,0-1.63-3.22,7.6,7.6,0,0,0-4.53-1.19,15.59,15.59,0,0,0-4.34.89v-5.37l6.25-7.37Z"/><text class="cls-14" transform="translate(196.6 261.71)">Escolha que se<tspan class="cls-15" x="130.22" y="0">r</tspan><tspan x="139.58" y="0">viço </tspan><tspan x="-1.37" y="26.4">deseja saber valo</tspan><tspan class="cls-16" x="149.91" y="26.4">r</tspan><tspan x="158.18" y="26.4">es</tspan></text><text class="cls-17" transform="translate(202.88 213.62)">SER<tspan class="cls-18" x="71.54" y="0">V</tspan><tspan x="97.12" y="0">I</tspan><tspan class="cls-19" x="108.6" y="0">Ç</tspan><tspan x="133.73" y="0">O</tspan></text><text class="cls-20" transform="translate(692.78 256.13)">Escolha as opções <tspan x="-16.57" y="28.8">que mais se </tspan><tspan class="cls-21" x="102.9" y="28.8">a</tspan><tspan x="112.91" y="28.8">plicam a </tspan><tspan x="80.27" y="57.6">si</tspan></text><text class="cls-22" transform="translate(702.47 213.62)">OP<tspan class="cls-18" x="55.16" y="0">Ç</tspan><tspan x="80.29" y="0">ÕES</tspan></text><text class="cls-20" transform="translate(1200.72 252.71)">Em menos de 1 <tspan x="-11.8" y="28.8">mi</tspan><tspan class="cls-21" x="11.96" y="28.8">n</tspan><tspan x="23.73" y="28.8">uto obtenha o </tspan><tspan x="-26.38" y="57.6">valor final do se</tspan><tspan class="cls-15" x="127.35" y="57.6">r</tspan><tspan x="137.57" y="57.6">viço </tspan><tspan x="24.29" y="86.4">que deseja</tspan></text><text class="cls-23" transform="translate(1152.3 213.62)"><tspan class="cls-24">V</tspan><tspan x="24.78" y="0">A</tspan><tspan class="cls-25" x="51.59" y="0">L</tspan><tspan x="72.31" y="0">OR FINAL</tspan></text></g></g></g></svg>