<svg xmlns="http://www.w3.org/2000/svg" xmlns:xlink="http://www.w3.org/1999/xlink" viewBox="0 0 65.59 122"><defs><style>.cls-1{stroke:#2d3a49;stroke-miterlimit:10;stroke-width:2px;fill:url(#Gradiente_sem_nome_42);}</style><linearGradient id="Gradiente_sem_nome_42" x1="-47.07" y1="129.96" x2="92.13" y2="-2.34" gradientUnits="userSpaceOnUse"><stop offset="0" stop-color="#fdc830"/><stop offset="1" stop-color="#f37335"/></linearGradient></defs><g id="Camada_2" data-name="Camada 2"><g id="Camada_1-2" data-name="Camada 1"><path class="cls-1" d="M7.11,24.73l-5.82-1.5A32.34,32.34,0,0,1,13,7.18,31.27,31.27,0,0,1,32,1a31.36,31.36,0,0,1,23.1,9.53,31.52,31.52,0,0,1,9.47,23.06q0,16.54-16.29,28.91-1,.68-4.73,3a50.16,50.16,0,0,0-5.4,3.76,15.61,15.61,0,0,0-3.4,5.1A19.56,19.56,0,0,0,33,82.89v13H27.21V79.72a18.43,18.43,0,0,1,2.07-8.86,18.15,18.15,0,0,1,4.41-5.68,83.11,83.11,0,0,1,7.47-5A78,78,0,0,0,48.8,55q9.64-8.68,9.64-20.89T51.05,14.2A23.81,23.81,0,0,0,33.27,6.52q-10.38,0-17,4.93A24.85,24.85,0,0,0,7.11,24.73Zm27.9,91a5,5,0,0,1-1.57,3.76,5.2,5.2,0,0,1-7.31,0,5,5,0,0,1-1.58-3.76,5.12,5.12,0,0,1,1.66-3.85,5.19,5.19,0,0,1,3.65-1.59,4.94,4.94,0,0,1,3.58,1.59A5.26,5.26,0,0,1,35,115.74Z"/></g></g></svg>