<svg xmlns="http://www.w3.org/2000/svg" xmlns:xlink="http://www.w3.org/1999/xlink" viewBox="0 0 128 97.36"><defs><style>.cls-1{fill:url(#Gradiente_sem_nome_42);}.cls-2{fill:#2d3a49;}.cls-3{fill:#fff;}</style><linearGradient id="Gradiente_sem_nome_42" x1="-15.96" y1="101.99" x2="175.35" y2="-25.55" gradientUnits="userSpaceOnUse"><stop offset="0" stop-color="#fdc830"/><stop offset="1" stop-color="#f37335"/></linearGradient></defs><g id="Camada_2" data-name="Camada 2"><g id="Camada_1-2" data-name="Camada 1"><rect class="cls-1" x="2" y="2" width="124" height="93.36" rx="4.81"/><path class="cls-2" d="M121.19,4A2.81,2.81,0,0,1,124,6.81V90.55a2.81,2.81,0,0,1-2.81,2.81H6.81A2.81,2.81,0,0,1,4,90.55V6.81A2.81,2.81,0,0,1,6.81,4H121.19m0-4H6.81A6.81,6.81,0,0,0,0,6.81V90.55a6.82,6.82,0,0,0,6.81,6.81H121.19A6.82,6.82,0,0,0,128,90.55V6.81A6.81,6.81,0,0,0,121.19,0Z"/><path class="cls-3" d="M87.8,31.48a3.51,3.51,0,0,0-2.69-1.25h0a3.49,3.49,0,0,0-2.69,1.26L50.17,70.19,31.78,45.66a3.5,3.5,0,0,0-2.8-1.4h0a3.52,3.52,0,0,0-2.79,1.39l-22,29V89.88a3.51,3.51,0,0,0,3.51,3.5H120.44a3.5,3.5,0,0,0,3.5-3.5V74.56ZM50,37.24A10.53,10.53,0,1,0,39.5,26.72,10.53,10.53,0,0,0,50,37.24Z"/></g></g></svg>