<svg xmlns="http://www.w3.org/2000/svg" xmlns:xlink="http://www.w3.org/1999/xlink" viewBox="0 0 163.88 96.65"><defs><style>.cls-1{fill:url(#Gradiente_sem_nome_42);}.cls-2{fill:url(#Gradiente_sem_nome_42-2);}.cls-3{fill:url(#Gradiente_sem_nome_42-3);}.cls-4{fill:url(#Gradiente_sem_nome_42-4);}.cls-5{fill:#2d3a49;}</style><linearGradient id="Gradiente_sem_nome_42" x1="10.42" y1="24.69" x2="134.51" y2="0.52" gradientUnits="userSpaceOnUse"><stop offset="0" stop-color="#fdc830"/><stop offset="1" stop-color="#f37335"/></linearGradient><linearGradient id="Gradiente_sem_nome_42-2" x1="12.16" y1="33.65" x2="136.25" y2="9.48" xlink:href="#Gradiente_sem_nome_42"/><linearGradient id="Gradiente_sem_nome_42-3" x1="13.71" y1="41.58" x2="137.8" y2="17.42" xlink:href="#Gradiente_sem_nome_42"/><linearGradient id="Gradiente_sem_nome_42-4" x1="13.9" y1="42.58" x2="137.99" y2="18.41" xlink:href="#Gradiente_sem_nome_42"/></defs><g id="Camada_2" data-name="Camada 2"><g id="Camada_1-2" data-name="Camada 1"><path class="cls-1" d="M48.08,0V30.85a3.25,3.25,0,0,0,.78,2.54,4,4,0,0,0,2.61.67V35l-2.3-.11c-1,0-2.06-.07-3.1-.07s-2,0-3.08.07L40.67,35v-.94a4,4,0,0,0,2.61-.67,3.25,3.25,0,0,0,.78-2.54V5.36a5,5,0,0,0-.71-3,3.17,3.17,0,0,0-2.68-1V.49c.95.09,1.87.14,2.77.14A19.59,19.59,0,0,0,45.91.47,13.13,13.13,0,0,0,48.08,0Z"/><path class="cls-2" d="M64.24,11.38a10.5,10.5,0,0,1,5.13,1.25A9,9,0,0,1,73,16.56a15.39,15.39,0,0,1,1.36,7A15.22,15.22,0,0,1,73,30.47a8.92,8.92,0,0,1-3.64,3.9,11.11,11.11,0,0,1-10.24,0,8.79,8.79,0,0,1-3.66-3.9,15.22,15.22,0,0,1-1.36-6.94,15.39,15.39,0,0,1,1.36-7,8.87,8.87,0,0,1,3.66-3.93A10.53,10.53,0,0,1,64.24,11.38Zm0,.9a4.78,4.78,0,0,0-4.17,2.63q-1.64,2.64-1.63,8.62c0,4,.54,6.85,1.63,8.59a4.64,4.64,0,0,0,8.34,0C69.5,30.38,70,27.51,70,23.53s-.54-6.86-1.63-8.62A4.78,4.78,0,0,0,64.24,12.28Z"/><path class="cls-3" d="M86,43.39a19.29,19.29,0,0,1-4.46-.49,8.21,8.21,0,0,1-3.38-1.54,3.31,3.31,0,0,1-1.27-2.66A3.46,3.46,0,0,1,78.12,36a8.29,8.29,0,0,1,3.4-1.7l.26.71a2.85,2.85,0,0,0-1.56,1.25,3.91,3.91,0,0,0-.58,2.1,3.45,3.45,0,0,0,1.9,3.15,9.78,9.78,0,0,0,4.93,1.09,15.24,15.24,0,0,0,3.93-.51,7.17,7.17,0,0,0,3.17-1.72,4.21,4.21,0,0,0,1.25-3.17,3.15,3.15,0,0,0-1-2.43c-.7-.64-2.08-1-4.13-1h-3.3a17.76,17.76,0,0,1-2.77-.22,4.57,4.57,0,0,1-2.19-.94,2.73,2.73,0,0,1-.85-2.19,4.37,4.37,0,0,1,1.25-2.92,13.71,13.71,0,0,1,4.6-2.88l.54.4a20.17,20.17,0,0,0-2.64,1.63,2.39,2.39,0,0,0-1.11,1.94c0,.95.71,1.43,2.14,1.43h5.58a9.6,9.6,0,0,1,4.89,1.23,4.29,4.29,0,0,1,2.12,4,6.54,6.54,0,0,1-1.34,3.92,9.39,9.39,0,0,1-4,3A16.69,16.69,0,0,1,86,43.39Zm.22-17.9a9,9,0,0,1-5.56-1.7q-2.25-1.7-2.25-5.35c0-2.47.75-4.27,2.25-5.38a10,10,0,0,1,11.12,0C93.26,14.17,94,16,94,18.44s-.75,4.22-2.25,5.35A8.93,8.93,0,0,1,86.2,25.49Zm0-.8a3.1,3.1,0,0,0,2.66-1.34c.64-.89,1-2.53,1-4.91s-.32-4-1-4.91a3.28,3.28,0,0,0-5.29,0c-.66.89-1,2.53-1,4.91s.32,4,1,4.91A3.1,3.1,0,0,0,86.2,24.69Zm6.43-9.6-.8-.31A6.44,6.44,0,0,1,94,12.1a5.11,5.11,0,0,1,3.17-1.16,2.67,2.67,0,0,1,1.87.64,2.5,2.5,0,0,1,.72,1.95A2.29,2.29,0,0,1,99,15.47,2.47,2.47,0,0,1,97.5,16a2,2,0,0,1-1.25-.47,2,2,0,0,1-.67-1.5,5.68,5.68,0,0,1,.62-2.63l.58.13a8.14,8.14,0,0,0-2.68,1.5A8.51,8.51,0,0,0,92.63,15.09Z"/><path class="cls-4" d="M111.83,11.38A10.53,10.53,0,0,1,117,12.63a9,9,0,0,1,3.64,3.93,15.39,15.39,0,0,1,1.36,7,15.22,15.22,0,0,1-1.36,6.94,8.92,8.92,0,0,1-3.64,3.9,11.11,11.11,0,0,1-10.24,0,8.86,8.86,0,0,1-3.67-3.9,15.36,15.36,0,0,1-1.36-6.94,15.52,15.52,0,0,1,1.36-7,8.94,8.94,0,0,1,3.67-3.93A10.53,10.53,0,0,1,111.83,11.38Zm0,.9a4.8,4.8,0,0,0-4.18,2.63c-1.08,1.76-1.63,4.63-1.63,8.62s.55,6.85,1.63,8.59a4.64,4.64,0,0,0,8.35,0c1.09-1.74,1.63-4.61,1.63-8.59s-.54-6.86-1.63-8.62A4.8,4.8,0,0,0,111.83,12.28Z"/><path class="cls-5" d="M10.09,65a8,8,0,0,1,6.14,2.39q2.2,2.39,2.21,7.43H2.68l-.05-.84H14.15a14.52,14.52,0,0,0-.36-4,6.85,6.85,0,0,0-1.4-3A3.11,3.11,0,0,0,9.91,65.8a4.57,4.57,0,0,0-3.64,2.06c-1,1.36-1.69,3.54-1.89,6.51l.13.18c-.06.45-.11.94-.13,1.47s0,1.08,0,1.61a12.7,12.7,0,0,0,1,5.22,8,8,0,0,0,2.57,3.33,5.56,5.56,0,0,0,3.28,1.14,7.35,7.35,0,0,0,3.71-1,7.49,7.49,0,0,0,2.85-3.49l.9.36A9.35,9.35,0,0,1,17,86.07a8.68,8.68,0,0,1-2.81,2.25,8.52,8.52,0,0,1-3.93.87,10.06,10.06,0,0,1-5.52-1.47,9.55,9.55,0,0,1-3.52-4.08,14,14,0,0,1-1.23-6,16.72,16.72,0,0,1,1.25-6.76,10,10,0,0,1,3.53-4.38A9.31,9.31,0,0,1,10.09,65Z"/><path class="cls-5" d="M30.58,76.92l.4,1.2-3.7,4.82a5.07,5.07,0,0,0-1.23,2.55A1.54,1.54,0,0,0,26.87,87a6.09,6.09,0,0,0,2.46.65v.89l-1.7-.07-1.8,0c-.58,0-1.11,0-1.59,0-1.31,0-2.44,0-3.39.13v-.89a3.55,3.55,0,0,0,1.76-.79,12.51,12.51,0,0,0,2.17-2.34ZM29.37,65.58v.94a2.4,2.4,0,0,0-1.42.4c-.39.27-.44.64-.14,1.11L39.73,85.4A7.54,7.54,0,0,0,41.07,87a3.25,3.25,0,0,0,1.43.65v.94l-1.36-.11c-.61,0-1.22-.07-1.81-.07-.92,0-1.91,0-3,.07s-1.82.08-2.3.11v-.94a2.47,2.47,0,0,0,1.48-.42c.38-.28.41-.65.08-1.1L23.71,68.75A9,9,0,0,0,22.28,67a2.62,2.62,0,0,0-1.34-.51v-.94l1.38.11c.63,0,1.22.07,1.79.07.95,0,1.95,0,3-.07S28.9,65.61,29.37,65.58Zm12.24,0v.89a3.79,3.79,0,0,0-1.86.87,10.84,10.84,0,0,0-2.07,2.26l-5.14,7.09-.35-1.16,3.48-4.86q1.47-2.1,1.32-3.06c-.11-.64-1-1-2.53-1.14v-.89l1.95.09c.52,0,1.12,0,1.8,0C39.55,65.71,40.68,65.67,41.61,65.58Z"/><path class="cls-5" d="M50.36,88.88a5.42,5.42,0,0,1-4.22-1.45,5.51,5.51,0,0,1-1.32-3.86,5,5,0,0,1,.92-3.1,7.15,7.15,0,0,1,2.34-2,20.4,20.4,0,0,1,3-1.34c1.06-.37,2.06-.74,3-1.1a9.44,9.44,0,0,0,2.34-1.2,2,2,0,0,0,.91-1.7V70.36a5.92,5.92,0,0,0-.55-2.86,2.78,2.78,0,0,0-1.5-1.32,6.25,6.25,0,0,0-2.1-.33,10,10,0,0,0-2.39.31,3.62,3.62,0,0,0-2,1.29,2.68,2.68,0,0,1,2.1,2.73,2.28,2.28,0,0,1-.71,1.76,2.64,2.64,0,0,1-1.83.65,2.19,2.19,0,0,1-1.9-.83,3.08,3.08,0,0,1-.6-1.85A2.89,2.89,0,0,1,46.43,68a7.41,7.41,0,0,1,1.47-1.34,10,10,0,0,1,2.66-1.22A12.25,12.25,0,0,1,54.24,65a10.13,10.13,0,0,1,3.12.43,5.52,5.52,0,0,1,2.15,1.23A5,5,0,0,1,61,69.22a17,17,0,0,1,.35,3.68V85.31a3.09,3.09,0,0,0,.32,1.58,1.13,1.13,0,0,0,1.07.52,2.15,2.15,0,0,0,1.09-.27,5.06,5.06,0,0,0,.91-.67l.5.76a14.05,14.05,0,0,1-1.79,1.18,4.63,4.63,0,0,1-2.28.47c-1.54,0-2.57-.4-3.08-1.2a5.16,5.16,0,0,1-.76-2.77,7.56,7.56,0,0,1-3.23,3.17A9.32,9.32,0,0,1,50.36,88.88Zm2-1.78A5,5,0,0,0,55,86.31a7.42,7.42,0,0,0,2.41-2.61V75a4.43,4.43,0,0,1-2.07,1.57c-.94.38-1.91.81-2.9,1.27a7.78,7.78,0,0,0-2.57,1.87A4.88,4.88,0,0,0,48.75,83a4.09,4.09,0,0,0,1,3.06A3.48,3.48,0,0,0,52.32,87.1Z"/><path class="cls-5" d="M81.34,65a7.49,7.49,0,0,1,2.72.45A5.16,5.16,0,0,1,86,66.65,4.85,4.85,0,0,1,87.14,69a16.75,16.75,0,0,1,.31,3.53V84.42A3.25,3.25,0,0,0,88.23,87a4,4,0,0,0,2.62.67v.94l-2.33-.11c-1,0-2-.07-3-.07s-1.94,0-2.88.07l-2.12.11v-.94A3.11,3.11,0,0,0,82.76,87a3.58,3.58,0,0,0,.67-2.54V71.52A16.78,16.78,0,0,0,83.26,69a3.24,3.24,0,0,0-.9-1.87A3.16,3.16,0,0,0,80,66.38a4.9,4.9,0,0,0-3.1,1.07,7.17,7.17,0,0,0-2.14,2.93A10.52,10.52,0,0,0,74,74.51v9.91A3.64,3.64,0,0,0,74.68,87a3.15,3.15,0,0,0,2.28.67v.94l-2.12-.11c-.94,0-1.9-.07-2.88-.07s-2,0-3,.07l-2.33.11v-.94A4,4,0,0,0,69.22,87,3.25,3.25,0,0,0,70,84.42v-14a4.94,4.94,0,0,0-.72-3,3.15,3.15,0,0,0-2.68-1v-.94c1,.09,1.88.13,2.77.13a19.67,19.67,0,0,0,2.48-.15A13.13,13.13,0,0,0,74,65.09v5.27a8.35,8.35,0,0,1,3.16-4.16A7.81,7.81,0,0,1,81.34,65Zm13.43,0a7.55,7.55,0,0,1,2.73.45,5.16,5.16,0,0,1,1.92,1.25A4.85,4.85,0,0,1,100.58,69a16.75,16.75,0,0,1,.31,3.53V84.42a3.25,3.25,0,0,0,.78,2.54,4,4,0,0,0,2.61.67v.94L102,88.46c-1,0-2-.07-3-.07s-2,0-2.88.07l-2.12.11v-.94A3.11,3.11,0,0,0,96.2,87a3.58,3.58,0,0,0,.67-2.54V71.52A16.72,16.72,0,0,0,96.69,69a3.23,3.23,0,0,0-.89-1.87,3.18,3.18,0,0,0-2.32-.72,5.2,5.2,0,0,0-4.31,2.32,9.4,9.4,0,0,0-1.72,5.76l-.13-4.15a7.81,7.81,0,0,1,3.26-4.22A8.55,8.55,0,0,1,94.77,65Z"/><path class="cls-5" d="M113.34,65.09V92.5a2.68,2.68,0,0,0,1.14,2.56,6.32,6.32,0,0,0,3.15.65v.94l-2.72-.11c-1.16-.05-2.4-.07-3.71-.07-.92,0-1.84,0-2.74.07l-2.08.11v-.94a3.49,3.49,0,0,0,2.28-.58,2.85,2.85,0,0,0,.67-2.19V70.44a4.94,4.94,0,0,0-.72-3,3.15,3.15,0,0,0-2.68-1v-.94c1,.09,1.88.13,2.77.13a19.79,19.79,0,0,0,2.48-.15A12.78,12.78,0,0,0,113.34,65.09Zm7.15-.14a7.43,7.43,0,0,1,5.91,2.84q2.38,2.83,2.39,8.23a18.94,18.94,0,0,1-1,6.25,11.31,11.31,0,0,1-3.28,5,8.63,8.63,0,0,1-5.89,1.94,6.59,6.59,0,0,1-3.64-1,5,5,0,0,1-2.08-2.36l.45-.63a5.78,5.78,0,0,0,1.81,2.1,5,5,0,0,0,3,.85A4.89,4.89,0,0,0,122,86.6a9,9,0,0,0,1.94-4.17,27.85,27.85,0,0,0,.56-5.78,24.18,24.18,0,0,0-.58-5.85,7,7,0,0,0-1.74-3.39,4,4,0,0,0-2.86-1.12,5.49,5.49,0,0,0-4,1.81A9.39,9.39,0,0,0,113,73.57l-.53-.63a9.45,9.45,0,0,1,2.7-5.89A7.39,7.39,0,0,1,120.49,65Z"/><path class="cls-5" d="M139.28,53.57V84.42a3.25,3.25,0,0,0,.78,2.54,4,4,0,0,0,2.61.67v.94l-2.3-.11c-1,0-2.06-.07-3.1-.07s-2,0-3.08.07l-2.32.11v-.94a4,4,0,0,0,2.61-.67,3.25,3.25,0,0,0,.78-2.54V58.93a5,5,0,0,0-.71-3,3.17,3.17,0,0,0-2.68-1v-.94c.95.09,1.88.14,2.77.14a19.75,19.75,0,0,0,2.48-.16A13,13,0,0,0,139.28,53.57Z"/><path class="cls-5" d="M155.35,65a8,8,0,0,1,6.14,2.39q2.2,2.39,2.21,7.43H147.94l0-.84h11.51a14.92,14.92,0,0,0-.35-4,7,7,0,0,0-1.41-3,3.11,3.11,0,0,0-2.48-1.12,4.54,4.54,0,0,0-3.63,2.06c-1.06,1.36-1.69,3.54-1.9,6.51l.13.18c-.06.45-.1.94-.13,1.47s0,1.08,0,1.61a12.53,12.53,0,0,0,1,5.22,8,8,0,0,0,2.56,3.33,5.56,5.56,0,0,0,3.28,1.14,7.32,7.32,0,0,0,3.71-1A7.56,7.56,0,0,0,163,82.85l.89.36a9.35,9.35,0,0,1-1.61,2.86,8.41,8.41,0,0,1-6.74,3.12A10,10,0,0,1,150,87.72a9.51,9.51,0,0,1-3.53-4.08,14,14,0,0,1-1.23-6,16.72,16.72,0,0,1,1.25-6.76A10.06,10.06,0,0,1,150,66.49,9.31,9.31,0,0,1,155.35,65Z"/></g></g></svg>