<svg xmlns="http://www.w3.org/2000/svg" viewBox="0 0 120.06 120.02"><defs><style>.cls-1{fill:#d80027;}.cls-2{fill:#c4052e;}.cls-3{fill:#ffda44;}</style></defs><g id="Camada_2" data-name="Camada 2"><g id="Camada_1-2" data-name="Camada 1"><path class="cls-1" d="M0,60a60,60,0,0,1,120,0c-2.61,0-60,7.83-60,7.83Z"/><path class="cls-2" d="M16.58,60.47a60,60,0,0,1,7.06-28.33c.39-.73.8-1.45,1.21-2.17q1.51-2.55,3.24-4.92c.71-1,1.44-1.9,2.2-2.81q.77-.93,1.56-1.83L33,19.13c.93-1,1.89-1.92,2.88-2.83a58.43,58.43,0,0,1,6-4.86,59.6,59.6,0,0,1,5.78-3.63c1.58-.87,3.19-1.67,4.85-2.38A59.49,59.49,0,0,1,64.25,1.68c1.06-.23,2.14-.43,3.23-.58L68.29,1,67.48.87a61.29,61.29,0,0,0-15,0c-1.64.2-3.25.47-4.84.8A59.9,59.9,0,0,0,19.32,16.3q-2.12,2-4.05,4.11-.79.9-1.56,1.83A59.82,59.82,0,0,0,0,60.47Z"/><path class="cls-2" d="M66.87,120l.61-.07.81-.11h0C67.8,119.91,67.33,120,66.87,120Z"/><path d="M120.06,59.53a60,60,0,0,1-120,0"/><polygon class="cls-3" points="51.77 47.72 56.86 51.41 54.92 57.39 60 53.69 65.09 57.38 63.15 51.41 68.23 47.71 61.94 47.72 60 41.74 58.06 47.72 51.77 47.72"/><path class="cls-3" d="M75,34a29.81,29.81,0,0,0-15-4v7.82A22.18,22.18,0,1,1,41.5,72.21L35,76.53A30,30,0,1,0,75,34Z"/><path class="cls-3" d="M42.7,54.78A7.83,7.83,0,0,0,45.81,65.4L71.23,79.29A6.32,6.32,0,0,0,73.58,88l6.86,3.75a6.53,6.53,0,0,0,8.86-2.59l3.75-6.86Z"/></g></g></svg>