<svg xmlns="http://www.w3.org/2000/svg" viewBox="0 0 211 211"><defs><style>.cls-1{fill:none;stroke:#2d3a49;stroke-miterlimit:10;}.cls-2{fill:#04a558;}.cls-3{fill:#03914a;}.cls-4{fill:#fcc13d;}.cls-5{fill:#dda22c;}.cls-6{fill:#00b564;}.cls-7{fill:#3e436d;}.cls-8{fill:#fff;}</style></defs><g id="Camada_2" data-name="Camada 2"><g id="Camada_1-2" data-name="Camada 1"><rect class="cls-1" x="0.5" y="0.5" width="210" height="210" rx="12"/><g id="Icons"><circle class="cls-2" cx="105.5" cy="105.5" r="60"/><path class="cls-3" d="M114.76,164.8a61.13,61.13,0,0,1-9.26.7,60,60,0,0,1,0-120,61.13,61.13,0,0,1,9.26.7,60,60,0,0,0,0,118.6Z"/><path class="cls-4" d="M105.5,73,49.55,105.5l56,32.46,55.95-32.46Z"/><path class="cls-5" d="M64,105.5a61.14,61.14,0,0,0,.63,8.76l-15.1-8.76,15.1-8.76A61.14,61.14,0,0,0,64,105.5Z"/><circle class="cls-6" cx="151.51" cy="78.31" r="3.82"/><circle class="cls-6" cx="146.3" cy="72.31" r="2.7"/><path class="cls-7" d="M128.7,105.5v.17a23,23,0,1,1,0-.17Z"/><path class="cls-8" d="M128.7,105.67a22.81,22.81,0,0,1-1.65,8.44c-4.61-8.32-12.2-14.28-22.67-17.75a63,63,0,0,0-18.61-3.07,23.21,23.21,0,0,1,5.15-5.85,69,69,0,0,1,15.18,3.07c9.56,3.14,17.17,8.28,22.6,15.16Z"/><circle class="cls-8" cx="89.56" cy="112.77" r="1.64"/><circle class="cls-8" cx="97.3" cy="122.37" r="1.64"/><circle class="cls-8" cx="105.5" cy="118.08" r="1.64"/><circle class="cls-8" cx="108.78" cy="124.02" r="1.64"/><circle class="cls-8" cx="120.03" cy="115.74" r="1.64"/><circle class="cls-8" cx="115.58" cy="121.05" r="1.64"/><circle class="cls-8" cx="108.78" cy="105.5" r="1.64"/><circle class="cls-8" cx="89.56" cy="99.41" r="1.64"/><circle class="cls-8" cx="97.3" cy="114.41" r="1.64"/></g></g></g></svg>