<svg xmlns="http://www.w3.org/2000/svg" viewBox="0 0 140.02 140"><defs><style>.cls-1{fill:#02934d;}.cls-2{fill:#db1b1b;}.cls-3{fill:#f6c752;}.cls-4{fill:#e83838;}.cls-5{fill:#fff;}.cls-6{fill:#3e436d;}.cls-7{fill:#037c3c;}.cls-8{fill:#c41c1c;}</style></defs><g id="Camada_2" data-name="Camada 2"><g id="Camada_1-2" data-name="Camada 1"><g id="Icons"><path class="cls-1" d="M56.06,1.37V138.61a70,70,0,0,1,0-137.24Z"/><path class="cls-2" d="M140,70a70,70,0,0,1-68.8,70H68.8a70.94,70.94,0,0,1-12.74-1.37V1.37A70.09,70.09,0,0,1,68.64,0h2.74A70,70,0,0,1,140,70Z"/><path class="cls-3" d="M56.06,24.17A29.68,29.68,0,1,0,85.74,53.85,29.68,29.68,0,0,0,56.06,24.17ZM81.55,51.79H61l.41-.41,7.46-7.47,6.64-6.63A25.38,25.38,0,0,1,81.55,51.79ZM58.11,28.35a25.46,25.46,0,0,1,14,5.56l.55.46L58.11,48.89Zm-4.1,0V48.89l-.74-.74-8.2-8.22-5.56-5.56.55-.46A25.49,25.49,0,0,1,54,28.35ZM36.6,37.28l6.64,6.63,7.46,7.48.41.41H30.58a25.41,25.41,0,0,1,6-14.52Zm-6,18.61H51.12l-2.84,2.85-3.92,3.91-4.1,4.1L36.61,70.4a25.46,25.46,0,0,1-6-14.51ZM54,79.33a25.45,25.45,0,0,1-14.51-6l3.12-3.12,4-4L54,58.8Zm4.1,0V58.79L72.64,73.31a25.58,25.58,0,0,1-14.53,6ZM75.54,70.4l-7.75-7.75-3.92-3.9L61,55.89H81.55a25.52,25.52,0,0,1-6,14.51Z"/><path class="cls-4" d="M40.48,33.89a2.32,2.32,0,0,0-2.33,2.32v24h.1a17.92,17.92,0,0,0,35.63,0H74V36.2a2.33,2.33,0,0,0-2.33-2.31Z"/><path class="cls-5" d="M45.48,39.91a2.24,2.24,0,0,0-2.24,2.24V58.78h.07a12.83,12.83,0,0,0,25.51,0h.07V42.14a2.24,2.24,0,0,0-2.24-2.25Z"/><path class="cls-6" d="M53.49,42.49a.55.55,0,0,0-.55.55v4.05h0a3.12,3.12,0,0,0,6.21,0h0V43a.55.55,0,0,0-.54-.55Z"/><path class="cls-6" d="M53.49,60.79a.55.55,0,0,0-.55.55v4h0a3.12,3.12,0,0,0,6.21,0h0v-4a.54.54,0,0,0-.54-.55Z"/><path class="cls-6" d="M53.49,51.39a.55.55,0,0,0-.55.55V56h0a3.12,3.12,0,0,0,6.21,0h0V51.94a.55.55,0,0,0-.54-.55Z"/><path class="cls-6" d="M46.11,51.39a.55.55,0,0,0-.55.55V56h0a3.12,3.12,0,0,0,6.2,0h0V51.94a.55.55,0,0,0-.55-.55Z"/><path class="cls-6" d="M61,51.39a.55.55,0,0,0-.55.55V56h0a3.12,3.12,0,0,0,6.21,0h0V51.94a.55.55,0,0,0-.54-.55Z"/><path class="cls-7" d="M56.06,1.37V7.42a70,70,0,0,0,0,125.13v6.06a70,70,0,0,1,0-137.24Z"/><path class="cls-8" d="M73.57,1.37A69.61,69.61,0,0,0,56.06,7.42v-6A70.09,70.09,0,0,1,68.64,0h2.74a70,70,0,0,1,7.38.53Q76.14.85,73.57,1.37Z"/><path class="cls-8" d="M73.57,138.61c1.7.34,3.44.63,5.19.85a73.09,73.09,0,0,1-7.54.54H68.8a70.94,70.94,0,0,1-12.74-1.37v-6.08a69.63,69.63,0,0,0,17.51,6.06Z"/></g></g></g></svg>