<svg xmlns="http://www.w3.org/2000/svg" xmlns:xlink="http://www.w3.org/1999/xlink" viewBox="0 0 133.11 106.74"><defs><style>.cls-1{fill:url(#linear-gradient);}.cls-2{fill:url(#linear-gradient-2);}.cls-3{fill:url(#linear-gradient-3);}.cls-4{fill:url(#linear-gradient-4);}.cls-5{fill:url(#linear-gradient-5);}.cls-6{fill:url(#linear-gradient-6);}.cls-7{fill:url(#linear-gradient-7);}.cls-8{fill:url(#linear-gradient-8);}.cls-9{fill:url(#linear-gradient-9);}.cls-10{fill:url(#linear-gradient-10);}.cls-11{fill:url(#linear-gradient-11);}.cls-12{fill:url(#linear-gradient-12);}.cls-13{fill:url(#linear-gradient-13);}.cls-14{fill:url(#linear-gradient-14);}.cls-15{fill:url(#linear-gradient-15);}.cls-16{fill:url(#linear-gradient-16);}.cls-17{fill:url(#linear-gradient-17);}.cls-18{fill:#2c3a49;}.cls-19{fill:url(#linear-gradient-18);}</style><linearGradient id="linear-gradient" x1="14.68" y1="60.61" x2="78.12" y2="-6.05" gradientUnits="userSpaceOnUse"><stop offset="0.19" stop-color="#56ab2f"/><stop offset="0.56" stop-color="#7fc549"/><stop offset="1" stop-color="#a8e063"/></linearGradient><linearGradient id="linear-gradient-2" x1="18.82" y1="64.56" x2="82.27" y2="-2.1" xlink:href="#linear-gradient"/><linearGradient id="linear-gradient-3" x1="32.02" y1="77.12" x2="95.46" y2="10.45" xlink:href="#linear-gradient"/><linearGradient id="linear-gradient-4" x1="36.1" y1="81" x2="99.54" y2="14.34" xlink:href="#linear-gradient"/><linearGradient id="linear-gradient-5" x1="40.08" y1="84.79" x2="103.52" y2="18.13" xlink:href="#linear-gradient"/><linearGradient id="linear-gradient-6" x1="44.14" y1="88.66" x2="107.59" y2="22" xlink:href="#linear-gradient"/><linearGradient id="linear-gradient-7" x1="29.11" y1="74.35" x2="92.55" y2="7.69" xlink:href="#linear-gradient"/><linearGradient id="linear-gradient-8" x1="25.86" y1="71.25" x2="89.3" y2="4.59" gradientUnits="userSpaceOnUse"><stop offset="0.19" stop-color="#56ab2f"/><stop offset="1" stop-color="#a8e063"/></linearGradient><linearGradient id="linear-gradient-9" x1="20.24" y1="65.91" x2="83.68" y2="-0.75" xlink:href="#linear-gradient"/><linearGradient id="linear-gradient-10" x1="20.72" y1="66.37" x2="84.16" y2="-0.3" xlink:href="#linear-gradient"/><linearGradient id="linear-gradient-11" x1="24.82" y1="70.27" x2="88.27" y2="3.61" xlink:href="#linear-gradient"/><linearGradient id="linear-gradient-12" x1="28.84" y1="74.09" x2="92.28" y2="7.43" xlink:href="#linear-gradient"/><linearGradient id="linear-gradient-13" x1="28.4" y1="73.67" x2="91.84" y2="7.01" xlink:href="#linear-gradient"/><linearGradient id="linear-gradient-14" x1="31.98" y1="77.08" x2="95.42" y2="10.42" xlink:href="#linear-gradient"/><linearGradient id="linear-gradient-15" x1="24.3" y1="69.77" x2="87.74" y2="3.11" xlink:href="#linear-gradient"/><linearGradient id="linear-gradient-16" x1="27.88" y1="73.18" x2="91.32" y2="6.51" xlink:href="#linear-gradient"/><linearGradient id="linear-gradient-17" x1="34.24" y1="79.24" x2="97.69" y2="12.57" xlink:href="#linear-gradient"/><linearGradient id="linear-gradient-18" x1="52.68" y1="77.61" x2="57.9" y2="77.61" gradientUnits="userSpaceOnUse"><stop offset="0.19" stop-color="#56ab2f"/><stop offset="0.36" stop-color="#5aae32"/><stop offset="0.54" stop-color="#68b63a"/><stop offset="0.74" stop-color="#7dc448"/><stop offset="0.93" stop-color="#9cd85b"/><stop offset="1" stop-color="#a8e063"/></linearGradient></defs><g id="Layer_2" data-name="Layer 2"><g id="Layer_1-2" data-name="Layer 1"><rect class="cls-1" x="54.02" y="8.96" width="18.4" height="1.3" rx="0.65"/><rect class="cls-2" x="54.02" y="17.26" width="18.4" height="1.3" rx="0.65"/><rect class="cls-3" x="71.42" y="25.4" width="18.4" height="1.3" rx="0.65"/><rect class="cls-4" x="71.44" y="33.54" width="18.4" height="1.3" rx="0.65"/><rect class="cls-5" x="71.44" y="41.52" width="18.4" height="1.3" rx="0.65"/><rect class="cls-6" x="71.44" y="49.66" width="18.4" height="1.3" rx="0.65"/><path class="cls-7" d="M92.62,17.26,76.61.63A.94.94,0,0,0,75.72,0H50.41a1,1,0,0,0-.95,1V18.72h1.3V1.3H75.37V17.53a1,1,0,0,0,.95.95H91.87V58.7H72.34V60H92.22a1,1,0,0,0,1-1V18.13A1,1,0,0,0,92.62,17.26Zm-16-14.92L91,17.18H76.67Z"/><path class="cls-8" d="M67.13,59.92H41.89a2,2,0,0,1-2-2V24.34a2,2,0,0,1,2-1.95H67.13a2,2,0,0,1,2,1.95V58A2,2,0,0,1,67.13,59.92ZM41.89,23.53a.82.82,0,0,0-.82.81V58a.82.82,0,0,0,.82.82H67.13a.82.82,0,0,0,.81-.82V24.34a.81.81,0,0,0-.81-.81Z"/><path class="cls-9" d="M64.24,33.52H44.53a.76.76,0,0,1-.77-.76V27.3a.76.76,0,0,1,.77-.76H64.24a.76.76,0,0,1,.77.76v5.46A.76.76,0,0,1,64.24,33.52ZM44.9,32.38h19v-4.7h-19Z"/><path class="cls-10" d="M49,41.68H44.42a.66.66,0,0,1-.66-.65v-3.9a.67.67,0,0,1,.66-.66H49a.66.66,0,0,1,.65.66V41A.65.65,0,0,1,49,41.68ZM44.9,40.54h3.58V37.61H44.9Z"/><path class="cls-11" d="M56.78,41.68H52.23a.65.65,0,0,1-.65-.65v-3.9a.66.66,0,0,1,.65-.66h4.55a.67.67,0,0,1,.66.66V41A.66.66,0,0,1,56.78,41.68Zm-4.06-1.14H56.3V37.61H52.72Z"/><path class="cls-12" d="M64.43,41.68H59.88a.65.65,0,0,1-.65-.65v-3.9a.66.66,0,0,1,.65-.66h4.55a.66.66,0,0,1,.66.66V41A.65.65,0,0,1,64.43,41.68Zm-4.06-1.14H64V37.61H60.37Z"/><path class="cls-13" d="M56.78,48.85H52.23a.66.66,0,0,1-.65-.66v-3.9a.65.65,0,0,1,.65-.65h4.55a.66.66,0,0,1,.66.65v3.9A.67.67,0,0,1,56.78,48.85Zm-4.06-1.14H56.3V44.78H52.72Z"/><path class="cls-14" d="M56.78,56H52.23a.65.65,0,0,1-.65-.66V51.46a.65.65,0,0,1,.65-.66h4.55a.66.66,0,0,1,.66.66v3.89A.66.66,0,0,1,56.78,56Zm-4.06-1.14H56.3V51.94H52.72Z"/><path class="cls-15" d="M49,48.85H44.42a.67.67,0,0,1-.66-.66v-3.9a.66.66,0,0,1,.66-.65H49a.65.65,0,0,1,.65.65v3.9A.66.66,0,0,1,49,48.85ZM44.9,47.71h3.58V44.78H44.9Z"/><path class="cls-16" d="M49,56H44.42a.66.66,0,0,1-.66-.66V51.46a.66.66,0,0,1,.66-.66H49a.65.65,0,0,1,.65.66v3.89A.65.65,0,0,1,49,56ZM44.9,54.87h3.58V51.94H44.9Z"/><path class="cls-17" d="M64.43,56.17H59.88a.65.65,0,0,1-.65-.65V44.29a.65.65,0,0,1,.65-.65h4.55a.65.65,0,0,1,.66.65V55.52A.65.65,0,0,1,64.43,56.17ZM60.37,55H64V44.78H60.37Z"/><path class="cls-18" d="M19.78,88.75A13.43,13.43,0,0,1,18.84,94a10,10,0,0,1-2.68,3.74A11.27,11.27,0,0,1,12,100a19,19,0,0,1-5.4.72c-.94,0-2,0-3.19-.12a21.41,21.41,0,0,1-3.4-.49V77.44A21.49,21.49,0,0,1,3.43,77c1.21-.06,2.29-.1,3.23-.1a19.53,19.53,0,0,1,5.35.69,11.08,11.08,0,0,1,4.15,2.15,9.69,9.69,0,0,1,2.68,3.7A13.71,13.71,0,0,1,19.78,88.75ZM4.24,96.92c.25,0,.57,0,1,0l1.65,0c2.85,0,5-.73,6.38-2.17a8.37,8.37,0,0,0,2.1-6.07,8.39,8.39,0,0,0-2.05-6.09c-1.37-1.42-3.49-2.12-6.36-2.12a24,24,0,0,0-2.69.1Z"/><path class="cls-18" d="M48,98.64c0,2.8-.72,4.85-2.14,6.15s-3.6,1.95-6.54,1.95a18.09,18.09,0,0,1-3.15-.27,17.76,17.76,0,0,1-2.77-.7l.74-3.47a12.54,12.54,0,0,0,2.37.71,14.45,14.45,0,0,0,2.88.27,4.93,4.93,0,0,0,3.49-1,4,4,0,0,0,1-3V98.6a10.88,10.88,0,0,1-1.6.61,7.85,7.85,0,0,1-2.27.3A8.48,8.48,0,0,1,37,99a6.41,6.41,0,0,1-2.39-1.58,7.16,7.16,0,0,1-1.55-2.61,10.74,10.74,0,0,1-.55-3.61,10.25,10.25,0,0,1,.59-3.53,7.49,7.49,0,0,1,1.71-2.76,8,8,0,0,1,2.75-1.79,10,10,0,0,1,3.66-.63,22.77,22.77,0,0,1,3.77.3,30.62,30.62,0,0,1,3,.64ZM36.7,91.17A5.35,5.35,0,0,0,37.83,95a3.81,3.81,0,0,0,2.91,1.2,6,6,0,0,0,1.83-.27,5.23,5.23,0,0,0,1.4-.64V86.12c-.29-.06-.65-.13-1.08-.18a11.9,11.9,0,0,0-1.61-.09,4.1,4.1,0,0,0-3.4,1.47A5.92,5.92,0,0,0,36.7,91.17Z"/><path class="cls-18" d="M61.53,91.64a10.88,10.88,0,0,1,.62-3.79,7.8,7.8,0,0,1,4.59-4.74,10,10,0,0,1,3.74-.65,23.94,23.94,0,0,1,3.9.3,25.87,25.87,0,0,1,3,.64v23.24H73.3V99.81a9.31,9.31,0,0,1-1.73.68,8.1,8.1,0,0,1-2.27.3,7.92,7.92,0,0,1-3.33-.66,6.45,6.45,0,0,1-2.42-1.86,8.48,8.48,0,0,1-1.5-2.9A12.46,12.46,0,0,1,61.53,91.64Zm4.17.07a7.19,7.19,0,0,0,1,4.07A3.65,3.65,0,0,0,70,97.29a5.66,5.66,0,0,0,1.9-.32,6.16,6.16,0,0,0,1.43-.69V86.22c-.29-.06-.66-.13-1.09-.18a13.07,13.07,0,0,0-1.7-.09A4.33,4.33,0,0,0,67,87.49,6.33,6.33,0,0,0,65.7,91.71Z"/><path class="cls-18" d="M97,99.88c-.78.2-1.8.41-3.06.62a24,24,0,0,1-4.14.32,9.24,9.24,0,0,1-3.55-.6A5.81,5.81,0,0,1,84,98.54,6.72,6.72,0,0,1,82.72,96a13.5,13.5,0,0,1-.37-3.28V82.83h4.07V92a7.44,7.44,0,0,0,.82,4,3.23,3.23,0,0,0,2.88,1.21c.49,0,1,0,1.56-.07a8.92,8.92,0,0,0,1.23-.16V82.83H97Z"/><path class="cls-18" d="M118.07,91.61a11.47,11.47,0,0,1-.6,3.8,8.31,8.31,0,0,1-1.72,2.92,7.72,7.72,0,0,1-2.67,1.89,8.6,8.6,0,0,1-3.45.67,8.5,8.5,0,0,1-3.43-.67,7.78,7.78,0,0,1-2.66-1.89,8.48,8.48,0,0,1-1.73-2.92,11,11,0,0,1-.62-3.8,10.84,10.84,0,0,1,.62-3.79,8.51,8.51,0,0,1,1.75-2.91A7.73,7.73,0,0,1,106.23,83a8.77,8.77,0,0,1,3.4-.65,8.94,8.94,0,0,1,3.42.65,7.54,7.54,0,0,1,2.67,1.87,8.62,8.62,0,0,1,1.73,2.91A10.84,10.84,0,0,1,118.07,91.61Zm-4.17,0a6.89,6.89,0,0,0-1.12-4.16,4,4,0,0,0-6.29,0,6.82,6.82,0,0,0-1.13,4.16,6.93,6.93,0,0,0,1.13,4.2,4,4,0,0,0,6.29,0A7,7,0,0,0,113.9,91.61Z"/><path class="cls-18" d="M122.08,78.18l4.07-.67v5.32h6.25v3.39h-6.25v7.17a5.22,5.22,0,0,0,.67,3,2.68,2.68,0,0,0,2.29.9,7.4,7.4,0,0,0,2-.23,13,13,0,0,0,1.36-.44l.67,3.23a15.19,15.19,0,0,1-1.85.62,9.77,9.77,0,0,1-2.69.32,8.4,8.4,0,0,1-3.14-.5,4.75,4.75,0,0,1-2-1.46,5.85,5.85,0,0,1-1-2.33,14.45,14.45,0,0,1-.3-3.11Z"/><circle class="cls-19" cx="55.29" cy="77.61" r="2.61"/><circle class="cls-18" cx="26.29" cy="77.61" r="2.61"/><rect class="cls-18" x="53.25" y="82.83" width="4.07" height="17.59"/><rect class="cls-18" x="24.25" y="82.83" width="4.07" height="17.59"/></g></g></svg>