<svg xmlns="http://www.w3.org/2000/svg" xmlns:xlink="http://www.w3.org/1999/xlink" viewBox="0 0 201.35 60"><defs><style>.cls-1{fill:url(#linear-gradient);}.cls-2{fill:url(#linear-gradient-2);}.cls-3{fill:url(#linear-gradient-3);}.cls-4{fill:url(#linear-gradient-4);}.cls-5{fill:url(#linear-gradient-5);}.cls-6{fill:url(#linear-gradient-6);}.cls-7{fill:url(#linear-gradient-7);}.cls-8{fill:url(#linear-gradient-8);}.cls-9{fill:url(#linear-gradient-9);}.cls-10{fill:url(#linear-gradient-10);}.cls-11{fill:url(#linear-gradient-11);}.cls-12{fill:url(#linear-gradient-12);}.cls-13{fill:url(#linear-gradient-13);}.cls-14{fill:url(#linear-gradient-14);}.cls-15{fill:url(#linear-gradient-15);}.cls-16{fill:url(#linear-gradient-16);}.cls-17{fill:url(#linear-gradient-17);}.cls-18{fill:#2c3a49;}.cls-19{fill:url(#linear-gradient-18);}</style><linearGradient id="linear-gradient" x1="-25.26" y1="60.61" x2="38.18" y2="-6.05" gradientUnits="userSpaceOnUse"><stop offset="0.19" stop-color="#56ab2f"/><stop offset="0.56" stop-color="#7fc549"/><stop offset="1" stop-color="#a8e063"/></linearGradient><linearGradient id="linear-gradient-2" x1="-21.11" y1="64.56" x2="42.33" y2="-2.1" xlink:href="#linear-gradient"/><linearGradient id="linear-gradient-3" x1="-7.92" y1="77.12" x2="55.53" y2="10.45" xlink:href="#linear-gradient"/><linearGradient id="linear-gradient-4" x1="-3.84" y1="81" x2="59.6" y2="14.34" xlink:href="#linear-gradient"/><linearGradient id="linear-gradient-5" x1="0.14" y1="84.79" x2="63.59" y2="18.13" xlink:href="#linear-gradient"/><linearGradient id="linear-gradient-6" x1="4.21" y1="88.66" x2="67.65" y2="22" xlink:href="#linear-gradient"/><linearGradient id="linear-gradient-7" x1="-10.82" y1="74.35" x2="52.62" y2="7.69" xlink:href="#linear-gradient"/><linearGradient id="linear-gradient-8" x1="-14.08" y1="71.25" x2="49.37" y2="4.59" gradientUnits="userSpaceOnUse"><stop offset="0.19" stop-color="#56ab2f"/><stop offset="1" stop-color="#a8e063"/></linearGradient><linearGradient id="linear-gradient-9" x1="-19.7" y1="65.91" x2="43.75" y2="-0.75" xlink:href="#linear-gradient"/><linearGradient id="linear-gradient-10" x1="-19.21" y1="66.37" x2="44.23" y2="-0.3" xlink:href="#linear-gradient"/><linearGradient id="linear-gradient-11" x1="-15.11" y1="70.27" x2="48.33" y2="3.61" xlink:href="#linear-gradient"/><linearGradient id="linear-gradient-12" x1="-11.1" y1="74.09" x2="52.35" y2="7.43" xlink:href="#linear-gradient"/><linearGradient id="linear-gradient-13" x1="-11.53" y1="73.67" x2="51.91" y2="7.01" xlink:href="#linear-gradient"/><linearGradient id="linear-gradient-14" x1="-7.96" y1="77.08" x2="55.49" y2="10.42" xlink:href="#linear-gradient"/><linearGradient id="linear-gradient-15" x1="-15.64" y1="69.77" x2="47.81" y2="3.11" xlink:href="#linear-gradient"/><linearGradient id="linear-gradient-16" x1="-12.06" y1="73.18" x2="51.39" y2="6.51" xlink:href="#linear-gradient"/><linearGradient id="linear-gradient-17" x1="-5.69" y1="79.24" x2="57.75" y2="12.57" xlink:href="#linear-gradient"/><linearGradient id="linear-gradient-18" x1="120.92" y1="16.74" x2="126.14" y2="16.74" gradientUnits="userSpaceOnUse"><stop offset="0.19" stop-color="#56ab2f"/><stop offset="0.36" stop-color="#5aae32"/><stop offset="0.54" stop-color="#68b63a"/><stop offset="0.74" stop-color="#7dc448"/><stop offset="0.93" stop-color="#9cd85b"/><stop offset="1" stop-color="#a8e063"/></linearGradient></defs><g id="Layer_2" data-name="Layer 2"><g id="Layer_1-2" data-name="Layer 1"><rect class="cls-1" x="14.08" y="8.96" width="18.4" height="1.3" rx="0.65"/><rect class="cls-2" x="14.08" y="17.26" width="18.4" height="1.3" rx="0.65"/><rect class="cls-3" x="31.48" y="25.4" width="18.4" height="1.3" rx="0.65"/><rect class="cls-4" x="31.51" y="33.54" width="18.4" height="1.3" rx="0.65"/><rect class="cls-5" x="31.51" y="41.52" width="18.4" height="1.3" rx="0.65"/><rect class="cls-6" x="31.51" y="49.66" width="18.4" height="1.3" rx="0.65"/><path class="cls-7" d="M52.68,17.26,36.68.63a.94.94,0,0,0-.9-.63H10.48a1,1,0,0,0-1,1V18.72h1.3V1.3h24.6V17.53a1,1,0,0,0,1,.95H51.94V58.7H32.41V60H52.29a1,1,0,0,0,1-1V18.13A1,1,0,0,0,52.68,17.26ZM36.74,2.34,51,17.18H36.74Z"/><path class="cls-8" d="M27.19,59.92H2A2,2,0,0,1,0,58V24.34a2,2,0,0,1,2-1.95H27.19a2,2,0,0,1,2,1.95V58A2,2,0,0,1,27.19,59.92ZM2,23.53a.81.81,0,0,0-.81.81V58a.82.82,0,0,0,.81.82H27.19A.82.82,0,0,0,28,58V24.34a.82.82,0,0,0-.82-.81Z"/><path class="cls-9" d="M24.31,33.52H4.59a.76.76,0,0,1-.76-.76V27.3a.76.76,0,0,1,.76-.76H24.31a.76.76,0,0,1,.76.76v5.46A.76.76,0,0,1,24.31,33.52ZM5,32.38h19v-4.7H5Z"/><path class="cls-10" d="M9,41.68H4.48A.65.65,0,0,1,3.83,41v-3.9a.66.66,0,0,1,.65-.66H9a.67.67,0,0,1,.66.66V41A.66.66,0,0,1,9,41.68ZM5,40.54H8.55V37.61H5Z"/><path class="cls-11" d="M16.85,41.68H12.3a.66.66,0,0,1-.66-.65v-3.9a.67.67,0,0,1,.66-.66h4.55a.66.66,0,0,1,.65.66V41A.65.65,0,0,1,16.85,41.68Zm-4.07-1.14h3.58V37.61H12.78Z"/><path class="cls-12" d="M24.5,41.68H20a.66.66,0,0,1-.66-.65v-3.9a.67.67,0,0,1,.66-.66H24.5a.67.67,0,0,1,.66.66V41A.66.66,0,0,1,24.5,41.68Zm-4.07-1.14H24V37.61H20.43Z"/><path class="cls-13" d="M16.85,48.85H12.3a.67.67,0,0,1-.66-.66v-3.9a.66.66,0,0,1,.66-.65h4.55a.65.65,0,0,1,.65.65v3.9A.66.66,0,0,1,16.85,48.85Zm-4.07-1.14h3.58V44.78H12.78Z"/><path class="cls-14" d="M16.85,56H12.3a.66.66,0,0,1-.66-.66V51.46a.66.66,0,0,1,.66-.66h4.55a.65.65,0,0,1,.65.66v3.89A.65.65,0,0,1,16.85,56Zm-4.07-1.14h3.58V51.94H12.78Z"/><path class="cls-15" d="M9,48.85H4.48a.66.66,0,0,1-.65-.66v-3.9a.65.65,0,0,1,.65-.65H9a.66.66,0,0,1,.66.65v3.9A.67.67,0,0,1,9,48.85ZM5,47.71H8.55V44.78H5Z"/><path class="cls-16" d="M9,56H4.48a.65.65,0,0,1-.65-.66V51.46a.65.65,0,0,1,.65-.66H9a.66.66,0,0,1,.66.66v3.89A.66.66,0,0,1,9,56ZM5,54.87H8.55V51.94H5Z"/><path class="cls-17" d="M24.5,56.17H20a.66.66,0,0,1-.66-.65V44.29a.66.66,0,0,1,.66-.65H24.5a.66.66,0,0,1,.66.65V55.52A.66.66,0,0,1,24.5,56.17ZM20.43,55H24V44.78H20.43Z"/><path class="cls-18" d="M88,27.87a13.48,13.48,0,0,1-.94,5.27,10,10,0,0,1-2.67,3.73,11.14,11.14,0,0,1-4.17,2.22,18.71,18.71,0,0,1-5.4.73c-1,0-2,0-3.2-.12a21.41,21.41,0,0,1-3.4-.49V16.57a20.41,20.41,0,0,1,3.43-.47C72.89,16,74,16,74.9,16a19.42,19.42,0,0,1,5.35.69,11.12,11.12,0,0,1,4.16,2.15,9.77,9.77,0,0,1,2.67,3.7A13.65,13.65,0,0,1,88,27.87ZM72.48,36.05c.25,0,.57,0,1,.05l1.65,0c2.84,0,5-.73,6.37-2.17a8.38,8.38,0,0,0,2.1-6.08,8.38,8.38,0,0,0-2-6.08c-1.37-1.42-3.49-2.12-6.36-2.12a24.12,24.12,0,0,0-2.69.1Z"/><path class="cls-18" d="M116.28,37.76q0,4.22-2.14,6.16t-6.54,1.95a18.72,18.72,0,0,1-5.92-1l.74-3.47a13,13,0,0,0,2.37.71,14.53,14.53,0,0,0,2.88.27,5,5,0,0,0,3.5-1,4,4,0,0,0,1-3v-.67a11.62,11.62,0,0,1-1.6.61,7.85,7.85,0,0,1-2.27.3,8.48,8.48,0,0,1-3.08-.54,6.49,6.49,0,0,1-2.39-1.58,7.14,7.14,0,0,1-1.54-2.61,10.78,10.78,0,0,1-.56-3.61,10.35,10.35,0,0,1,.59-3.54A7.55,7.55,0,0,1,103.08,24a7.76,7.76,0,0,1,2.74-1.79,10,10,0,0,1,3.67-.64,21.6,21.6,0,0,1,3.76.31,30.62,30.62,0,0,1,3,.64ZM104.94,30.3a5.37,5.37,0,0,0,1.13,3.78,3.81,3.81,0,0,0,2.91,1.2,6,6,0,0,0,1.83-.27,5.4,5.4,0,0,0,1.4-.64V25.25a9.28,9.28,0,0,0-1.08-.18,11.8,11.8,0,0,0-1.61-.09,4.13,4.13,0,0,0-3.4,1.46A6,6,0,0,0,104.94,30.3Z"/><path class="cls-18" d="M129.77,30.77a11.12,11.12,0,0,1,.62-3.79,8.24,8.24,0,0,1,1.78-2.89A8,8,0,0,1,135,22.24a10,10,0,0,1,3.74-.66,22.84,22.84,0,0,1,3.9.31,25.87,25.87,0,0,1,3,.64V45.77h-4.07V38.94a9.34,9.34,0,0,1-1.73.67,7.69,7.69,0,0,1-2.27.31,7.92,7.92,0,0,1-3.33-.66,6.55,6.55,0,0,1-2.42-1.87,8.61,8.61,0,0,1-1.5-2.89A12.46,12.46,0,0,1,129.77,30.77Zm4.17.07a7.11,7.11,0,0,0,1,4.07,3.64,3.64,0,0,0,3.24,1.51,5.61,5.61,0,0,0,1.9-.32,6,6,0,0,0,1.43-.69V25.35a9.13,9.13,0,0,0-1.09-.18,13,13,0,0,0-1.7-.09,4.35,4.35,0,0,0-3.53,1.53A6.42,6.42,0,0,0,133.94,30.84Z"/><path class="cls-18" d="M165.23,39c-.79.2-1.81.41-3.07.62A25,25,0,0,1,158,40a9.17,9.17,0,0,1-3.55-.6,5.7,5.7,0,0,1-2.29-1.69A6.61,6.61,0,0,1,151,35.09a14,14,0,0,1-.37-3.28V22h4.07v9.22a7.43,7.43,0,0,0,.83,4,3.21,3.21,0,0,0,2.87,1.21c.5,0,1,0,1.57-.07a7.36,7.36,0,0,0,1.23-.17V22h4.07Z"/><path class="cls-18" d="M186.32,30.73a11.28,11.28,0,0,1-.61,3.81A8.38,8.38,0,0,1,184,37.46a7.67,7.67,0,0,1-2.68,1.89,8.77,8.77,0,0,1-3.45.67,8.67,8.67,0,0,1-3.43-.67,7.74,7.74,0,0,1-2.65-1.89,8.75,8.75,0,0,1-1.74-2.92,11.28,11.28,0,0,1-.62-3.81,11,11,0,0,1,.62-3.78A8.66,8.66,0,0,1,171.8,24a7.67,7.67,0,0,1,2.68-1.87,8.72,8.72,0,0,1,3.39-.65,8.87,8.87,0,0,1,3.42.65A7.54,7.54,0,0,1,184,24,8.81,8.81,0,0,1,185.7,27,11,11,0,0,1,186.32,30.73Zm-4.17,0A6.86,6.86,0,0,0,181,26.58a4,4,0,0,0-6.29,0,6.86,6.86,0,0,0-1.13,4.15,7,7,0,0,0,1.13,4.21,4,4,0,0,0,6.29,0A7,7,0,0,0,182.15,30.73Z"/><path class="cls-18" d="M190.32,17.31l4.07-.67V22h6.26v3.4h-6.26v7.17a5.16,5.16,0,0,0,.67,3,2.67,2.67,0,0,0,2.29.91,7.78,7.78,0,0,0,2-.23c.57-.16,1-.31,1.36-.44l.67,3.23a14.62,14.62,0,0,1-1.85.62,10.17,10.17,0,0,1-2.69.32,8.65,8.65,0,0,1-3.14-.5,4.65,4.65,0,0,1-2-1.47,5.82,5.82,0,0,1-1-2.32,14.52,14.52,0,0,1-.3-3.11Z"/><circle class="cls-19" cx="123.53" cy="16.74" r="2.61"/><circle class="cls-18" cx="94.53" cy="16.74" r="2.61"/><rect class="cls-18" x="121.49" y="21.95" width="4.07" height="17.59"/><rect class="cls-18" x="92.5" y="21.95" width="4.07" height="17.59"/></g></g></svg>