<svg xmlns="http://www.w3.org/2000/svg" xmlns:xlink="http://www.w3.org/1999/xlink" viewBox="0 0 156.51 41.56"><defs><style>.cls-1{fill:url(#linear-gradient);}.cls-2{fill:url(#linear-gradient-2);}.cls-3{fill:url(#linear-gradient-3);}.cls-4{fill:url(#linear-gradient-4);}.cls-5{fill:url(#linear-gradient-5);}.cls-6{fill:url(#linear-gradient-6);}.cls-7{fill:url(#linear-gradient-7);}.cls-8{fill:url(#linear-gradient-8);}.cls-9{fill:url(#linear-gradient-9);}.cls-10{fill:url(#linear-gradient-10);}.cls-11{fill:url(#linear-gradient-11);}.cls-12{fill:url(#linear-gradient-12);}.cls-13{fill:url(#linear-gradient-13);}.cls-14{fill:url(#linear-gradient-14);}.cls-15{fill:url(#linear-gradient-15);}.cls-16{fill:url(#linear-gradient-16);}.cls-17{fill:url(#linear-gradient-17);}.cls-18{fill:#2c3a49;}.cls-19{fill:url(#linear-gradient-18);}</style><linearGradient id="linear-gradient" x1="-17.5" y1="972.17" x2="26.45" y2="1018.35" gradientTransform="matrix(1, 0, 0, -1, 0, 1014.16)" gradientUnits="userSpaceOnUse"><stop offset="0.19" stop-color="#56ab2f"/><stop offset="0.56" stop-color="#7fc549"/><stop offset="1" stop-color="#a8e063"/></linearGradient><linearGradient id="linear-gradient-2" x1="-14.63" y1="969.44" x2="29.32" y2="1015.62" xlink:href="#linear-gradient"/><linearGradient id="linear-gradient-3" x1="-5.49" y1="960.74" x2="38.46" y2="1006.92" xlink:href="#linear-gradient"/><linearGradient id="linear-gradient-4" x1="-2.66" y1="958.05" x2="41.29" y2="1004.23" xlink:href="#linear-gradient"/><linearGradient id="linear-gradient-5" x1="0.1" y1="955.43" x2="44.05" y2="1001.6" xlink:href="#linear-gradient"/><linearGradient id="linear-gradient-6" x1="2.92" y1="952.75" x2="46.86" y2="998.92" xlink:href="#linear-gradient"/><linearGradient id="linear-gradient-7" x1="-7.5" y1="962.66" x2="36.45" y2="1008.83" xlink:href="#linear-gradient"/><linearGradient id="linear-gradient-8" x1="-9.74" y1="964.8" x2="34.21" y2="1010.97" gradientTransform="matrix(1, 0, 0, -1, 0, 1014.16)" gradientUnits="userSpaceOnUse"><stop offset="0.19" stop-color="#56ab2f"/><stop offset="1" stop-color="#a8e063"/></linearGradient><linearGradient id="linear-gradient-9" x1="-13.65" y1="968.51" x2="30.3" y2="1014.68" xlink:href="#linear-gradient"/><linearGradient id="linear-gradient-10" x1="-13.32" y1="968.2" x2="30.63" y2="1014.38" xlink:href="#linear-gradient"/><linearGradient id="linear-gradient-11" x1="-10.47" y1="965.49" x2="33.48" y2="1011.66" xlink:href="#linear-gradient"/><linearGradient id="linear-gradient-12" x1="-7.68" y1="962.83" x2="36.27" y2="1009.01" xlink:href="#linear-gradient"/><linearGradient id="linear-gradient-13" x1="-7.99" y1="963.13" x2="35.96" y2="1009.3" xlink:href="#linear-gradient"/><linearGradient id="linear-gradient-14" x1="-5.52" y1="960.77" x2="38.43" y2="1006.94" xlink:href="#linear-gradient"/><linearGradient id="linear-gradient-15" x1="-10.84" y1="965.84" x2="33.11" y2="1012.01" xlink:href="#linear-gradient"/><linearGradient id="linear-gradient-16" x1="-8.36" y1="963.48" x2="35.59" y2="1009.66" xlink:href="#linear-gradient"/><linearGradient id="linear-gradient-17" x1="-3.93" y1="959.26" x2="40.01" y2="1005.44" xlink:href="#linear-gradient"/><linearGradient id="linear-gradient-18" x1="62.84" y1="19.4" x2="104.47" y2="11.87" gradientUnits="userSpaceOnUse"><stop offset="0.19" stop-color="#56ab2f"/><stop offset="0.36" stop-color="#5aae32"/><stop offset="0.54" stop-color="#68b63a"/><stop offset="0.74" stop-color="#7dc448"/><stop offset="0.93" stop-color="#9cd85b"/><stop offset="1" stop-color="#a8e063"/></linearGradient></defs><g id="Layer_2" data-name="Layer 2"><g id="Layer_1-2" data-name="Layer 1"><rect class="cls-1" x="9.75" y="6.21" width="12.75" height="0.9" rx="0.45"/><path class="cls-2" d="M10.2,12H22.05a.45.45,0,0,1,.45.45h0a.45.45,0,0,1-.45.45H10.2a.45.45,0,0,1-.45-.45h0A.45.45,0,0,1,10.2,12Z"/><path class="cls-3" d="M22.26,17.59H34.1a.45.45,0,0,1,.45.45h0a.46.46,0,0,1-.45.46H22.26a.46.46,0,0,1-.45-.46h0A.45.45,0,0,1,22.26,17.59Z"/><path class="cls-4" d="M22.28,23.23H34.12a.45.45,0,0,1,.45.45h0a.45.45,0,0,1-.45.45H22.28a.45.45,0,0,1-.45-.45h0A.45.45,0,0,1,22.28,23.23Z"/><path class="cls-5" d="M22.28,28.76H34.12a.45.45,0,0,1,.45.45h0a.45.45,0,0,1-.45.45H22.28a.45.45,0,0,1-.45-.45h0A.45.45,0,0,1,22.28,28.76Z"/><path class="cls-6" d="M22.28,34.4H34.12a.45.45,0,0,1,.45.45h0a.45.45,0,0,1-.45.45H22.28a.45.45,0,0,1-.45-.45h0A.45.45,0,0,1,22.28,34.4Z"/><path class="cls-7" d="M36.49,12,25.41.44A.66.66,0,0,0,24.78,0H7.26a.69.69,0,0,0-.69.69V13h.9V.9h17V12.14a.69.69,0,0,0,.69.66H36V40.66H22.45v.9H36.22a.69.69,0,0,0,.69-.69V12.56A.66.66,0,0,0,36.49,12Zm-11-10.34L35.33,11.9H25.45Z"/><path class="cls-8" d="M18.83,41.51H1.39A1.39,1.39,0,0,1,0,40.18V16.86a1.39,1.39,0,0,1,1.39-1.35H18.83a1.39,1.39,0,0,1,1.39,1.35V40.18A1.39,1.39,0,0,1,18.83,41.51ZM1.39,16.3a.57.57,0,0,0-.57.56V40.18a.56.56,0,0,0,.57.56H18.83a.56.56,0,0,0,.57-.56V16.86a.57.57,0,0,0-.57-.56Z"/><path class="cls-9" d="M16.84,23.22H3.18a.53.53,0,0,1-.53-.53V18.91a.53.53,0,0,1,.53-.53H16.84a.53.53,0,0,1,.53.53h0v3.78a.53.53,0,0,1-.53.53ZM3.46,22.43H16.62V19.17H3.46Z"/><path class="cls-10" d="M6.23,28.87H3.1a.45.45,0,0,1-.45-.45V25.7a.46.46,0,0,1,.45-.46H6.23a.47.47,0,0,1,.46.46v2.7a.46.46,0,0,1-.44.47Zm-2.77-.79H5.92v-2H3.46Z"/><path class="cls-11" d="M11.67,28.87H8.52a.46.46,0,0,1-.46-.45v-2.7a.48.48,0,0,1,.46-.46h3.15a.46.46,0,0,1,.45.46V28.4a.45.45,0,0,1-.43.47Zm-2.82-.79h2.48v-2H8.85Z"/><path class="cls-12" d="M17,28.87H13.85a.45.45,0,0,1-.45-.45v-2.7a.46.46,0,0,1,.45-.46H17a.48.48,0,0,1,.46.46V28.4a.46.46,0,0,1-.44.47Zm-2.82-.79h2.47v-2H14.15Z"/><path class="cls-13" d="M11.67,33.84H8.52a.48.48,0,0,1-.46-.46v-2.7a.46.46,0,0,1,.46-.45h3.15a.45.45,0,0,1,.45.45h0v2.7A.46.46,0,0,1,11.67,33.84Zm-2.82-.79h2.48V31H8.85Z"/><path class="cls-14" d="M11.67,38.79H8.52a.46.46,0,0,1-.46-.46V35.65a.46.46,0,0,1,.46-.46h3.15a.45.45,0,0,1,.45.45h0v2.69a.45.45,0,0,1-.45.45ZM8.85,38h2.48V36H8.85Z"/><path class="cls-15" d="M6.23,33.84H3.1a.46.46,0,0,1-.45-.46v-2.7a.45.45,0,0,1,.45-.45H6.23a.46.46,0,0,1,.46.45v2.7A.47.47,0,0,1,6.23,33.84Zm-2.77-.79H5.92V31H3.46Z"/><path class="cls-16" d="M6.23,38.79H3.1a.45.45,0,0,1-.45-.45h0V35.65a.46.46,0,0,1,.45-.46H6.23a.45.45,0,0,1,.46.46v2.69A.46.46,0,0,1,6.23,38.79ZM3.46,38H5.92V36H3.46Z"/><path class="cls-17" d="M17,38.91H13.85a.45.45,0,0,1-.45-.45V30.68a.45.45,0,0,1,.45-.45H17a.46.46,0,0,1,.46.45v7.78A.46.46,0,0,1,17,38.91Zm-2.82-.81h2.47V31H14.15Z"/><path class="cls-18" d="M65,23.53a11.59,11.59,0,0,1-.81,4.54,8.63,8.63,0,0,1-2.3,3.21,9.58,9.58,0,0,1-3.59,1.91,16.18,16.18,0,0,1-4.64.63,24.71,24.71,0,0,1-2.76-.11,18,18,0,0,1-2.92-.42V13.81a17.17,17.17,0,0,1,3-.41c1.07-.08,2-.08,2.8-.08a16.64,16.64,0,0,1,4.6.59,9.71,9.71,0,0,1,3.58,1.85,8.53,8.53,0,0,1,2.3,3.18A11.85,11.85,0,0,1,65,23.53Zm-13.36,7a7.37,7.37,0,0,1,.86,0h1.42c2.45,0,4.31-.62,5.49-1.86a7.23,7.23,0,0,0,1.8-5.24,7.19,7.19,0,0,0-1.72-5.23c-1.18-1.22-3-1.82-5.47-1.82a20,20,0,0,0-2.32.08Z"/><path class="cls-18" d="M87.57,32c0,2.42-.62,4.19-1.84,5.31S82.62,39,80.1,39a16.06,16.06,0,0,1-5.1-.86l.64-3a12,12,0,0,0,2,.61,12.18,12.18,0,0,0,2.48.23,4.34,4.34,0,0,0,3-.86A3.44,3.44,0,0,0,84,32.58V32a10.37,10.37,0,0,1-1.38.53,6.74,6.74,0,0,1-2,.25,7.29,7.29,0,0,1-2.65-.46A5.7,5.7,0,0,1,76,31a6,6,0,0,1-1.32-2.25,9.7,9.7,0,0,1,0-6.15,6.56,6.56,0,0,1,1.52-2.36,6.75,6.75,0,0,1,2.36-1.54,8.47,8.47,0,0,1,3.15-.55,17.57,17.57,0,0,1,3.24.27,25.18,25.18,0,0,1,2.58.55Zm-9.76-6.42a4.67,4.67,0,0,0,1,3.26,3.29,3.29,0,0,0,2.51,1,5.24,5.24,0,0,0,1.57-.23,4.9,4.9,0,0,0,1.21-.55V21.28c-.31-.07-.62-.12-.93-.16A10.8,10.8,0,0,0,81.75,21a3.58,3.58,0,0,0-2.93,1.26A5.15,5.15,0,0,0,77.81,25.62Z"/><path class="cls-18" d="M97.46,26A9.25,9.25,0,0,1,98,22.77a7,7,0,0,1,1.53-2.49A6.83,6.83,0,0,1,102,18.69a8.42,8.42,0,0,1,3.22-.57,18.85,18.85,0,0,1,3.35.27,20.93,20.93,0,0,1,2.59.55v20h-3.51V33.06a8.37,8.37,0,0,1-1.49.58,7.48,7.48,0,0,1-4.82-.31,5.62,5.62,0,0,1-2.08-1.6,7.58,7.58,0,0,1-1.29-2.49A10.57,10.57,0,0,1,97.46,26Zm3.59.06a6,6,0,0,0,.86,3.5,3.13,3.13,0,0,0,2.78,1.3,4.79,4.79,0,0,0,1.64-.28,5.16,5.16,0,0,0,1.23-.59V21.36a7.36,7.36,0,0,0-.94-.15,10.13,10.13,0,0,0-1.46-.08,3.73,3.73,0,0,0-3,1.32A5.47,5.47,0,0,0,101.05,26.09Z"/><path class="cls-18" d="M127.11,33.11c-.67.17-1.55.35-2.64.53a21.47,21.47,0,0,1-3.58.33,7.93,7.93,0,0,1-3-.51,5,5,0,0,1-2-1.46,5.57,5.57,0,0,1-1-2.25,11.76,11.76,0,0,1-.32-2.83V18.48h3.5v7.93a6.35,6.35,0,0,0,.72,3.45,2.77,2.77,0,0,0,2.47,1,10.63,10.63,0,0,0,1.35-.06,6.44,6.44,0,0,0,1.06-.15V18.48h3.5Z"/><path class="cls-18" d="M144.41,26a9.85,9.85,0,0,1-.53,3.28,7.11,7.11,0,0,1-1.47,2.52,6.58,6.58,0,0,1-2.31,1.62,7.84,7.84,0,0,1-5.92,0,6.69,6.69,0,0,1-2.28-1.62,7.6,7.6,0,0,1-1.5-2.52,9.85,9.85,0,0,1-.53-3.28,9.71,9.71,0,0,1,.53-3.25,7.45,7.45,0,0,1,1.51-2.54,6.69,6.69,0,0,1,2.31-1.61,7.43,7.43,0,0,1,2.91-.56,7.66,7.66,0,0,1,3,.56,6.59,6.59,0,0,1,2.33,1.61,7.59,7.59,0,0,1,1.46,2.58A9.75,9.75,0,0,1,144.41,26Zm-3.59,0a6,6,0,0,0-1-3.57,3.46,3.46,0,0,0-4.84-.58,4,4,0,0,0-.58.58,5.88,5.88,0,0,0-1,3.57,6.06,6.06,0,0,0,1,3.63,3.46,3.46,0,0,0,4.84.58,4,4,0,0,0,.58-.58,6.11,6.11,0,0,0,1-3.63Z"/><path class="cls-18" d="M147,14.44l3.5-.57v4.61h5.39v2.93h-5.39v6.17a4.47,4.47,0,0,0,.58,2.58,2.27,2.27,0,0,0,2,.78,6.63,6.63,0,0,0,1.72-.2c.49-.13.86-.26,1.17-.37l.58,2.78a12.49,12.49,0,0,1-1.6.53,8.54,8.54,0,0,1-2.31.27,7.28,7.28,0,0,1-2.7-.43,4,4,0,0,1-1.73-1.26,5.24,5.24,0,0,1-.86-2,12.65,12.65,0,0,1-.25-2.67Z"/><circle class="cls-19" cx="92.95" cy="13.95" r="2.25"/><circle class="cls-18" cx="69.71" cy="13.95" r="2.25"/><rect class="cls-18" x="91.19" y="18.44" width="3.5" height="15.14"/><rect class="cls-18" x="67.96" y="18.44" width="3.5" height="15.14"/></g></g></svg>